<?xml version="1.0" encoding="UTF-8"?>
<!DOCTYPE svg  PUBLIC '-//W3C//DTD SVG 1.1//EN'  'http://www.w3.org/Graphics/SVG/1.1/DTD/svg11.dtd'>
<svg enable-background="new 0 0 151.95 159.25" version="1.1" viewBox="0 0 151.95 159.25" xml:space="preserve" xmlns="http://www.w3.org/2000/svg">
<g clip-rule="evenodd">
		<radialGradient id="h" cx="75.975" cy="169.25" r="76" gradientTransform="matrix(1 0 0 -.1448 0 193.75)" gradientUnits="userSpaceOnUse">
		<stop stop-opacity=".3373" offset="0"/>
		<stop stop-opacity="0" offset="1"/>
	</radialGradient>
	<path d="m22.25 161.45c14.8-2.134 32.717-3.2 53.75-3.2 21 0 38.9 1.066 53.7 3.2 14.833 2.166 22.25 4.767 22.25 7.8s-7.417 5.616-22.25 7.75c-14.834 2.167-32.733 3.25-53.7 3.25s-38.883-1.083-53.75-3.25c-14.833-2.13-22.25-4.72-22.25-7.75s7.417-5.63 22.25-7.8z" fill="url(#h)" fill-rule="evenodd"/>
		<radialGradient id="i" cx="29.55" cy="169.9" r="9.925" gradientTransform="matrix(1 0 0 -1 0 339.8)" gradientUnits="userSpaceOnUse">
		<stop stop-opacity=".1686" offset=".6824"/>
		<stop stop-opacity=".1686" offset=".8706"/>
	</radialGradient>
	<path d="m29.95 161.25h7.55c1.3 0 2.167 0.167 2.6 0.5 0.533 0.434 0.617 1.267 0.25 2.5-0.567 1.934-2.517 4.267-5.85 7-0.133 0.1-0.733 0.5-1.8 1.2-0.767 0.5-1.35 0.967-1.75 1.399-0.133 0.167-0.667 0.884-1.6 2.15-0.667 0.967-1.25 1.6-1.75 1.9-0.733 0.433-2.267 0.649-4.6 0.649-2.433 0-3.95-0.267-4.55-0.8l11.5-16.5z" fill="url(#i)" fill-rule="evenodd"/>
		<radialGradient id="j" cx="127.7" cy="169.45" r="8.9861" gradientTransform="matrix(1 0 0 -1 0 338.9)" gradientUnits="userSpaceOnUse">
		<stop stop-opacity=".1686" offset=".6824"/>
		<stop stop-opacity=".1686" offset=".8706"/>
	</radialGradient>
	<path d="m124.9 164c2.699 1.667 4.267 2.7 4.699 3.1 1.334 1.2 2.233 2.051 2.7 2.551 1 1.066 1.733 2.05 2.2 2.949 0.9 1.867 1.366 2.851 1.4 2.95 0.5 1.167 0.666 2.217 0.5 3.15-2.134-0.3-4.617-0.45-7.45-0.45-1.267 0-2.084-0.083-2.45-0.25-0.566-0.2-1.116-0.783-1.65-1.75-0.566-1.1-1-1.917-1.3-2.45-0.5-0.967-1.017-1.75-1.55-2.35-0.5-0.434-0.85-0.75-1.05-0.95-0.367-0.333-0.684-0.75-0.95-1.25-0.333-0.533-0.566-0.934-0.7-1.2-0.267-0.467-0.383-0.899-0.35-1.3l2-6.5c0.67 1.23 1.98 2.48 3.95 3.75z" fill="url(#j)" fill-rule="evenodd"/>
		<radialGradient id="k" cx="22.2" cy="173.8" r="6.65" gradientTransform="matrix(1 0 0 -1 0 347.6)" gradientUnits="userSpaceOnUse">
		<stop stop-opacity=".1686" offset=".6824"/>
		<stop stop-opacity=".1686" offset=".8706"/>
	</radialGradient>
	<path d="m19.45 178.25c-1.2 0.033-2.117 0.066-2.75 0.1-1.1 0-2-0.066-2.7-0.199 0.267-0.534 1.233-1.25 2.9-2.15 1.833-0.934 2.967-1.517 3.4-1.75 0.034 0 1.833-0.717 5.4-2.15 1.279-0.512 2.329-1.028 3.15-1.55l-9.4 7.7z" fill="url(#k)" fill-rule="evenodd"/>
		<linearGradient id="l" x1="27.25" x2="74.5" y1="-74.649" y2="-74.649" gradientTransform="matrix(2.1164e-5 1 -1 -.001 -9.6172e-5 -.00017856)" gradientUnits="userSpaceOnUse">
		<stop stop-opacity=".3373" offset="0"/>
		<stop stop-opacity="0" offset="1"/>
	</linearGradient>
	<rect x="27.85" y="25.9" width="93.6" height="47.95" fill="url(#l)" fill-rule="evenodd"/>
		<linearGradient id="m" x1="68.25" x2="115.5" y1="-74.648" y2="-74.648" gradientTransform="matrix(2.1164e-5 1 -1 -.001 -9.6172e-5 -.00017856)" gradientUnits="userSpaceOnUse">
		<stop stop-opacity=".3373" offset="0"/>
		<stop stop-opacity="0" offset="1"/>
	</linearGradient>
	<rect x="27.85" y="66.9" width="93.6" height="47.95" fill="url(#m)" fill-rule="evenodd"/>
		<linearGradient id="n" x1="115.75" x2="163" y1="-74.648" y2="-74.648" gradientTransform="matrix(2.1164e-5 1 -1 -.001 -9.6172e-5 -.00017856)" gradientUnits="userSpaceOnUse">
		<stop stop-opacity=".3373" offset="0"/>
		<stop stop-opacity="0" offset="1"/>
	</linearGradient>
	<rect x="27.85" y="114.4" width="93.6" height="47.949" fill="url(#n)" fill-rule="evenodd"/>
	<path d="m22.3 28.75h14v132.8l-1.2 2.05c-0.934 1.5-1.767 2.601-2.5 3.301-1.133 1.1-4 4.767-8.6 11l-2.7-6 1-143.15z" fill="#9E9161" fill-rule="evenodd"/>
	<path d="m130.8 29.75l1.3 142.2-2.899 5.95c-5.033-6.2-8.184-9.851-9.45-10.95-0.8-0.7-1.717-1.783-2.75-3.25l-1.3-2.05-0.25-131.9h15.35z" fill="#9E9161" fill-rule="evenodd"/>
	<g fill-rule="evenodd">
		<path d="m30.45 137.3l-0.45-11.15 0.25-0.15c0.145 5.8 0.211 9.56 0.2 11.3zm0 0.48c0.047-0.898 0.181-2.239 0.4-4.025 0.233-1.866 0.35-3.283 0.35-4.25 0.1 2.6 0.233 5.267 0.4 8 0.066 2.134-0.033 5.1-0.3 8.9-0.3 5.3-0.533 10.483-0.7 15.55l-0.75 0.6c0.3-7.333 0.467-11.666 0.5-13 0.156-4.518 0.189-8.385 0.1-11.6 1e-3 -0.06 1e-3 -0.12 0-0.18z" fill="#8A7E54"/>
		<path d="m29.95 112.75l1 1.95 0.05 2.3-1.3 0.1-0.1-4.949c0.133 0.33 0.25 0.53 0.35 0.6z" fill="#8A7E54"/>
		<path d="m30.25 77.9l0.6-0.4-0.15 4.4 0.3-0.75-0.1 20.75-0.95 4.6c-0.034 0.267-0.15 1.1-0.35 2.5l0.65-31.1z" fill="#8A7E54"/>
		<path d="m28.6 35.05c0.133 1.567 0.5 2.517 1.1 2.85v-0.25c0.233 1.9 0.6 5.083 1.1 9.55 0.434 4 0.65 7.367 0.65 10.1l-0.15 11.2-0.85 0.1c0.066-6.367-0.133-11.2-0.6-14.5-0.6-4.3-1.117-10.583-1.55-18.85l0.3-0.2z" fill="#8A7E54"/>
		<path d="m22.1 58.7l0.05 1.25c0.1 3.566 0.184 10.15 0.25 19.75 0.033 10.967 0 18.934-0.1 23.899-0.133 5.233-0.216 11.5-0.25 18.801 0 6.733 0.034 11.316 0.1 13.75 0.067 1.466 0.3 6.333 0.7 14.6 0.4 8.4 0.6 14.566 0.6 18.5v7.45l-0.7-1.601-0.2-13.75c-0.066-4.733-0.216-9.166-0.45-13.3-0.267-4.1-0.45-6.983-0.55-8.649l0.55-80.7z" fill="#8A7E54"/>
		<path d="m28.55 126.55h0.05c0.367 6.233 0.55 10.601 0.55 13.101 0 1.166-0.15 6.767-0.45 16.8-0.367-1.367-0.583-2.517-0.65-3.45 0.167-3.434 0.25-6.15 0.25-8.15 0-2.933-0.167-6.816-0.5-11.649l-0.35-5.65c0.2 0.267 0.383 0.467 0.55 0.601 0.233-0.4 0.417-0.93 0.55-1.6z" fill="#8A7E54"/>
		<polygon points="27.75 158.8 28.6 160.2 28.5 163.75 27.55 164.6" fill="#8A7E54"/>
		<path d="m27.5 67.8v1.15l-0.65 0.05v-1.05c0.1 0.3 0.3 0.383 0.6 0.25l0.05-0.4z" fill="#8A7E54"/>
		<path d="m26.8 52.35c0.233 2.566 0.4 5.083 0.5 7.55l-0.6 3.55c-0.1-3.867-0.317-7.083-0.65-9.65-0.333-2.8-0.617-6.733-0.85-11.8l0.1-0.3c0.233-1.067 0.567-2.083 1-3.05 0.167 7.5 0.333 12.067 0.5 13.7z" fill="#8A7E54"/>
		<path d="m27.25 108.85c-0.2 1-0.3 1.717-0.3 2.15 0 0.267 0.083 1.684 0.25 4.25l0.4 0.65c-0.2-1.134-0.283-2.884-0.25-5.25 0.042-1.443 0.067-2.502 0.075-3.176-0.023 0.39-0.081 0.85-0.175 1.38zm-0.4-29.3l0.15-0.1-0.05 1.5c-0.034 0.6-0.017 1.1 0.05 1.5l0.5-1.25c0 3.7-0.033 8.333-0.1 13.899 0 4.367 0.05 8.284 0.15 11.75 0.034 1.767 0.184 5.034 0.45 9.801l-0.4-0.75c0.133 0.733 0.267 1.183 0.4 1.35l-1 0.1-0.2-17.55c0.033-8.967 0.05-15.717 0.05-20.25z" fill="#8A7E54"/>
		<path d="m33.9 128.2c0.067-0.334 0.1-0.767 0.1-1.3-0.033-0.733-0.05-1.184-0.05-1.351l0.2-1.899c0 11-0.017 17.517-0.05 19.55-0.067 3.8-0.317 9.233-0.75 16.3l-1.15 1.05c0.033-0.633 0.15-2.033 0.35-4.2l0.5 1.051c-0.193-0.515-0.276-1.265-0.25-2.25 0.133-1.367 0.2-2.284 0.2-2.75 0.13-1.432 0.197-3.007 0.2-4.726-0.015 0.691-0.131 2.101-0.35 4.226l0.2-6.4c0.2-6.333 0.333-10.384 0.4-12.15 0.066-2.6 0.033-5.566-0.1-8.899v-0.5l0.1-0.05v0.05c0.033 0.399 0.05 1.116 0.05 2.149 0.067 0.93 0.2 1.63 0.4 2.1z" fill="#8A7E54"/>
		<path d="m34.15 82.35c0.6-1.466 0.983-2.583 1.15-3.35l0.3-1.5c-0.133 3.566-0.333 8.033-0.6 13.4-0.267 4.633-0.417 7.899-0.45 9.8l-0.25 5.95c-0.3 1.166-0.35 2.25-0.15 3.25l-0.05 6.8-1.15 0.1 0.1-7.05c0.034-1.1 0.184-2.884 0.45-5.35 0.233-1.867 0.433-8.284 0.6-19.25l0.05-2.8z" fill="#8A7E54"/>
		<path d="m33.25 33.2l-0.05-0.8 0.35-0.1c1.733 8.667 2.6 14.267 2.6 16.8 0 2.833-0.133 10.167-0.4 22l-1.2 0.25c0.534-6.567 0.833-10.917 0.9-13.05 0.133-3.066-0.167-7.2-0.9-12.4-0.367-2.667-1.066-6.967-2.1-12.9l0.5-0.4 0.3 0.6z" fill="#8A7E54"/>
		<path d="m36.3 126.4v30.55l-0.85 0.75c-0.233-4.967-0.05-13.417 0.55-25.351l0.3-5.95z" fill="#8A7E54"/>
		<path d="m131.85 142.4l0.2 22-0.3 8.3-0.55 1.05c0.13-14.83 0.35-25.28 0.65-31.35z" fill="#8A7E54"/>
		<path d="m22.95 46.25l0.3-1.5v-0.05c0.233-0.233 0.383-0.367 0.45-0.4 0.4 4.067 0.6 6.95 0.6 8.65 0 2.066 0.217 10.45 0.65 25.15 0 0.5-0.034 1.267-0.1 2.3-0.033 0.9 0.017 1.65 0.15 2.25h0.05c0.067 6.466 0.067 10.916 0 13.35-0.167 7.667-0.15 15.15 0.05 22.45l-0.2 2.7c-0.033 0.5-0.1 1.199-0.2 2.1 0 0.7-0.017 1.767-0.05 3.2-0.333-3.7-0.517-6-0.55-6.9-0.133-2.1-0.2-4.767-0.2-8 0.1-13.5 0.15-25.133 0.15-34.9 0-6.433-0.1-12.117-0.3-17.05-0.133-3.4-0.4-7.85-0.8-13.35z" fill="#8A7E54"/>
		<path d="m24.6 161.65c0.167-2.867 0.533-6.267 1.1-10.2 0.267-1.667 0.2-5.884-0.2-12.65l-0.75-10.7c0.3-0.633 0.567-1.066 0.8-1.3 0.6 7.5 0.9 11.267 0.9 11.3 0.3 4.834 0.367 8.684 0.2 11.551-0.1 2-0.333 5.399-0.7 10.199-0.233 3.5-0.383 6.25-0.45 8.25-0.033 1.134 0 2.917 0.1 5.351l0.05 2.25-1.15 1.55c-0.3-2.83-0.267-8.03 0.1-15.6z" fill="#8A7E54"/>
		<path d="m115.55 82.35c0.267 0.767 0.434 1.95 0.5 3.551 0.066 2.6 0 8-0.2 16.199l-0.25 8.301-0.05-28.05z" fill="#8A7E54"/>
		<path d="m129.7 65.45c-0.334-8.133-0.517-12.75-0.55-13.85 0.233 0.566 0.5 0.867 0.8 0.9 0.1 3.267 0.316 6.917 0.649 10.95 0.334 3.6 0.517 5.767 0.551 6.5l0.05 3.5c-0.066 2.667-0.25 6.183-0.55 10.55-0.2 2.9-0.634 6.3-1.301 10.2-0.267 1.633-0.267 5.833 0 12.6 0.167 4.5 0.45 9.9 0.851 16.2 0.2 3.366 0.267 7.066 0.2 11.1-0.134 7.233-0.4 18.851-0.801 34.851l-0.1 8.35-0.3 0.601-0.45-0.5c-0.066-13.534 0-22.801 0.2-27.801 0.399-9.399 0.483-18.683 0.25-27.85-0.3-4.934-0.533-8.983-0.7-12.15-0.3-5.866-0.333-10.416-0.1-13.649 0.166-2.434 0.449-5.834 0.85-10.2 0.333-3.634 0.55-6.383 0.65-8.25 0.1-1.901 0.03-5.918-0.2-12.051z" fill="#8A7E54"/>
		<path d="m126.55 42.1c0.134-0.633 0.25-1.017 0.351-1.15 0.066 0.667 0.233 1.55 0.5 2.65 0.066 4.1 0.233 10.15 0.5 18.15 0.166 7.2 0.133 13.517-0.101 18.95-0.133 2.767-0.416 7.233-0.85 13.399-0.233 3.567-0.334 6.917-0.3 10.051-0.5 2.866-0.817 4.816-0.95 5.85v-4.15c0.033-2.199 0.2-6.083 0.5-11.649 0.434-8.533 0.684-13.434 0.75-14.7 0.166-0.667 0.25-1.7 0.25-3.1 0.133-0.5 0.184-1.2 0.149-2.1-0.066-1-0.1-1.733-0.1-2.2v-0.95c0.066-0.9 0.083-1.617 0.05-2.15 0.033-3.267-0.066-7.733-0.3-13.4-0.3-6.234-0.45-10.734-0.45-13.501z" fill="#8A7E54"/>
		<path d="m126.15 113.9c0.1-0.801 0.149-1.983 0.149-3.551 0.033-1.666 0.084-2.866 0.15-3.6l0.2-1.55c0.066 3.033 0.149 5.416 0.25 7.149 0.333 7.2 0.5 12.767 0.5 16.7 0.033 1.767-0.017 7.334-0.15 16.7-0.033 3.566-0.15 9.066-0.35 16.5h-0.65c0.333-12.566 0.483-20.417 0.45-23.55l-0.3-9.25 0.25 0.3 0.05-0.55 0.149 0.399-0.1-0.649c0.134-1.834 0.2-4.566 0.2-8.2l-0.9-0.2-0.1-4.3c0-0.5 0.07-1.28 0.2-2.35z" fill="#8A7E54"/>
		<path d="m120.5 124.3c0.065 1.867 0.049 3.56-0.05 5.075 0.083-0.831 0.383-1.989 0.899-3.475 0.101 2.666 0.051 5.916-0.149 9.75-0.066 1.1-0.267 2.883-0.601 5.35-0.233 1.767-0.533 7.95-0.899 18.55v-13.274c-0.038 1.104-0.188 2.778-0.45 5.024-0.267 2.334-0.366 4.15-0.3 5.45l0.75 3.4-0.1 2.15-1.199-0.35c0.633-8.434 1.017-14.184 1.149-17.25 0.4-4.5 0.634-9 0.7-13.5l0.1-7 0.15 0.1z" fill="#8A7E54"/>
		<path d="m121.3 111.45c-0.133 2.6-0.184 5.2-0.149 7.8l-0.7 0.3 0.15-8.55 0.351 0.5v-7.75c-0.022 0.366-0.089 0.782-0.2 1.25l0.05-2.8c0.134-3.2 0.434-7.934 0.9-14.2 0.434-5.533 0.649-9.183 0.649-10.95l-0.1-1.4c0.134 0.1 0.233 0.217 0.3 0.35l-0.05 1.9c-0.033 0.4-0.05 2.15-0.05 5.25 0.066-2.301 0.283-4.333 0.649-6.101l0.2 0.2v1.6c0 2.633-0.166 5.55-0.5 8.75-0.434 4-0.733 8.101-0.899 12.301-0.03 1-0.23 4.85-0.6 11.55z" fill="#8A7E54"/>
		<path d="m122.25 69.45l-0.65 0.35c-0.633-4.233-1-7.6-1.1-10.1-0.1-2.133-0.283-4.767-0.55-7.9-0.2-2.533-0.316-4.783-0.351-6.75 0-1.2-0.149-2.966-0.449-5.3-0.534-4.233-0.817-6.483-0.851-6.75l0.9 0.5 0.25 0.1 0.05 0.9c0.134 3.633 0.434 6.1 0.9 7.4 0.333 0.934 0.466 4.133 0.399 9.6-0.033 3.8 0.117 7.35 0.45 10.65 0.17 1.867 0.5 4.3 1 7.3z" fill="#8A7E54"/>
		<path d="m116.75 121.4l1.25 1.25c-0.333 4.333-0.7 8.166-1.1 11.5-0.167 2-0.233 4.616-0.2 7.85 0.033 2.767 0.133 4.15 0.3 4.15 0.066 0-0.017 2.716-0.25 8.149l-0.3 7.05-0.75-0.199-0.05-26.5c0.1-3.7 0.333-8.15 0.699-13.351l0.4 0.1z" fill="#8A7E54"/>
		<path d="m117.9 73.8l1.1 0.35c0.233 1.434 0.4 3.45 0.5 6.05 0.066 2.066 0.167 5.333 0.3 9.8-0.033 5.267-0.399 12.934-1.1 23l-0.45 6.2-1.7-0.3 0.7-9.351 0.2 0.2v-2.6c0.566-7.5 0.866-11.9 0.899-13.2 0.134-6.934 0.2-10.434 0.2-10.5 0-4.6-0.22-7.817-0.65-9.65z" fill="#8A7E54"/>
		<path d="m116.15 32.25l0.949 0.25c0.233 7.367 0.284 13.867 0.15 19.5-0.033 2.733-0.184 5.917-0.45 9.55-0.066 2.733 0.184 5.133 0.75 7.2l0.101 0.4-0.7-0.15-0.25 0.4-1-4.5c0.3-9.767 0.483-16.9 0.55-21.4 0.03-2.467 0-6.217-0.1-11.25z" fill="#8A7E54"/>
		<path d="m123 42.5c-0.033-0.733-0.267-1.883-0.7-3.45-0.666-2.333-1.116-3.983-1.35-4.95 0.267 0.167 0.434 0.3 0.5 0.4l0.35 0.35 1.15 2.45c0.399 1.8 0.666 3.284 0.8 4.45 0.233 1.8 0.333 4 0.3 6.6 0 2.6 0.217 5.717 0.65 9.35 0.6 5.1 0.934 8.167 1 9.2l-0.25-1.5c-0.667-3.5-1.084-5.833-1.25-7-0.033-0.6-0.084-1.066-0.15-1.4-0.066-0.6-0.166-1.083-0.3-1.45-0.066 0.367-0.1 1.217-0.1 2.55l-0.15-2.7c-0.13-5.133-0.3-9.433-0.5-12.9z" fill="#8A7E54"/>
		<path d="m125.4 83l0.05-0.25c-0.167 2.9-0.417 7.25-0.75 13.05-0.267 4.934-0.384 9.05-0.351 12.351l0.15 8.35-0.3 0.75v1.4l-0.45 0.649c-0.134-0.267-0.233-0.434-0.3-0.5v-1.85c-0.134-4.367-0.2-7.283-0.2-8.75-0.033-2.233 0.1-5.283 0.4-9.15 0.533-6.666 0.933-12.866 1.199-18.6l-0.1 5.149c0.033-0.333 0.116-0.767 0.25-1.3 0.2-0.599 0.33-1.032 0.4-1.299z" fill="#8A7E54"/>
		<path d="m123.95 136.38c0.032-1.716 0.115-3.607 0.25-5.675 0.066-1.767 0.166-3.066 0.3-3.9l0.2 0.2c0.066 6.134-0.066 13.15-0.4 21.05l-0.649 14.25h-0.45c0.14-7.268 0.215-13.018 0.225-17.25-0.044 2.105-0.152 4.105-0.325 6 0.2-11.434 0.317-19.783 0.351-25.05l0.1 0.05c0.233 1.634 0.367 3.55 0.4 5.75v4.58z" fill="#8A7E54"/>
		<path d="m126.7 37.3c0.133-1 0.483-1.617 1.05-1.85 0.134 0.233 0.2 0.517 0.2 0.85 0.033 0.167 0.05 0.45 0.05 0.85 0 0.067 0.25 0.883 0.75 2.45 0.134 0.367 0.45 1.417 0.95 3.15 0.033 0.1 0.1 0.35 0.2 0.75 0.133 0.4 0.25 0.633 0.35 0.7 0.233 0.133 0.45 0.066 0.65-0.2l0.05 5.05-0.25 0.95c-0.167 0.867-0.417 1.7-0.75 2.5-0.3-0.033-0.566-0.333-0.8-0.9-0.167-0.467-0.317-1.184-0.45-2.15-0.167-1.067-0.25-1.633-0.25-1.7l-1.05-4.15c-0.267-1.1-0.434-1.983-0.5-2.65-0.101 0.133-0.217 0.517-0.351 1.15-0.133 0.467-0.316 0.767-0.55 0.9-0.033-0.267-0.15-0.583-0.35-0.95-0.233-0.433-0.367-0.716-0.4-0.85-0.1-1.233-0.2-2.133-0.3-2.7-0.134-1.233-0.384-2.067-0.75-2.5l-0.25-0.25-0.5-0.3h-0.101c-0.267-1.5-0.416-2.333-0.449-2.5l1.85 0.55c0.9 0.167 1.45 0.433 1.65 0.8 0.066 0.133 0.1 0.333 0.1 0.6 0 0.167-0.017 0.383-0.05 0.65 0.03 0.4 0.12 0.983 0.25 1.75z" fill="#8A7E54"/>
		<path d="m117.1 32.5l-1.649-0.4v-1.5c1.267 0.267 3.184 0.867 5.75 1.8 0 0.667 0.2 1.483 0.6 2.45l-0.35-0.35c-0.066-0.1-0.233-0.233-0.5-0.4-0.066-0.033-0.566-0.2-1.5-0.5l-0.25-0.1-0.9-0.5c-0.47-0.267-0.87-0.433-1.2-0.5z" fill="#8A7E54"/>
		<path d="m27.45 31.5v-0.05l0.55-0.05 0.6 3.65-0.3 0.2c-0.367 0.3-0.683 0.7-0.95 1.2-0.3 0.667-0.567 1.216-0.8 1.65l-0.25 0.55c-0.433 0.967-0.767 1.983-1 3.05l-0.1 0.3c-0.167 0.633-0.417 1.133-0.75 1.5-0.067 0.1-0.317 0.367-0.75 0.8-0.066 0.033-0.208 0.158-0.425 0.375 0.106-0.547 0.448-2.021 1.025-4.425 0.367-1.7 0.733-2.867 1.1-3.5 1.233-2.133 1.917-3.883 2.05-5.25z" fill="#8A7E54"/>
		<path d="m32.95 32.6l-0.95 0.85c-0.467 0.367-1.167 0.7-2.1 1l-0.15-2.95c1.233 0 2.133-0.067 2.7-0.2l0.5 1.3z" fill="#8A7E54"/>
		<path d="m33.2 31.05l0.6-0.25c0.434-0.233 1.267-0.45 2.5-0.65v2.1h-1.9c-0.4 0-0.683 0.017-0.85 0.05l-0.35 0.1v-1.35z" fill="#8A7E54"/>
		<path d="m36.3 74.3l-0.25 0.15c0.133-1.534 0.184-2.667 0.15-3.4h0.1v3.25z" fill="#8A7E54"/>
		<path d="m32.7 73.3l0.4-1.7 3.05-0.55-1.95 2.45v1.95l-2.3 1.35c0.4-1.567 0.667-2.733 0.8-3.5z" fill="#8A7E54"/>
		<path d="m24.95 75.45l0.05 0.5c0.533 0 1 0.35 1.4 1.05 0.3 0.567 0.483 1.15 0.55 1.75l0.05 0.7-0.15 0.1c-0.2 0.2-0.517 0.65-0.95 1.351l-0.35 0.899c-0.167 0.4-0.333 0.684-0.5 0.851h-0.05c-0.133-0.601-0.183-1.351-0.15-2.25 0.066-1.034 0.1-1.8 0.1-2.3v-2.651z" fill="#8A7E54"/>
		<path d="m31 74.55l-0.15 2.95-0.6 0.4c-0.633 0.4-1.233 0.684-1.8 0.85l-0.25 0.1c0.2-0.9 0.483-1.684 0.85-2.35 0.267-0.6 0.517-1 0.75-1.2 0.1-0.1 0.3-0.216 0.6-0.35 0.267-0.133 0.467-0.267 0.6-0.4z" fill="#8A7E54"/>
		<path d="m126.05 74.95c0.434 0.433 0.8 1 1.101 1.7l0.05-0.25c0 1.4-0.084 2.434-0.25 3.1-0.233 0.9-0.566 1.45-1 1.65l-0.1-0.15 0.101-0.75c0.2-1.3 0.23-3.067 0.1-5.3z" fill="#8A7E54"/>
		<path d="m123.15 76.75c0.267-1 0.416-1.983 0.449-2.95l0.9 0.15 0.45 0.15-0.101 5.35-0.699-1.2c-0.134-0.233-0.417-0.567-0.851-1l-0.2-0.2 0.05-0.3z" fill="#8A7E54"/>
		<path d="m119 74.15l-2.8-0.9-0.65-0.35v-1.9l1.4-2 4.55 0.85-5.05 2.65c0.467 0.367 1.283 0.617 2.45 0.75 0.633 0.067 1.5 0.15 2.6 0.25l1.25 0.2c-0.134 0.4-0.2 1.167-0.2 2.3-0.066-0.133-0.166-0.25-0.3-0.35l-0.1-0.1c-0.334-0.267-0.834-0.533-1.5-0.8-0.73-0.267-1.28-0.467-1.65-0.6z" fill="#8A7E54"/>
		<path d="m33.45 123.9l-1.25 0.6c-0.3 0.167-0.583 0.384-0.85 0.65l0.1-2.25c0.4-0.233 1.066-0.517 2-0.851v1.85z" fill="#8A7E54"/>
		<path d="m30 126.15c-0.6 0.166-1.067 0.3-1.4 0.399h-0.05c0.267-0.866 0.55-1.483 0.85-1.85l0.85-0.851v2.15l-0.25 0.15z" fill="#8A7E54"/>
		<path d="m25.95 130.45c0.033-1.134-0.1-2.351-0.4-3.65 0.267-0.2 0.483-0.3 0.65-0.3 0.466-0.033 0.833 0.217 1.1 0.75-0.3 0.366-0.566 0.866-0.8 1.5-0.133 0.37-0.317 0.93-0.55 1.7z" fill="#8A7E54"/>
		<path d="m34.15 123.6l0.05-1.8 1.3-0.55 0.8-0.5v1.75l-0.4 0.25c-0.367 0.23-0.95 0.52-1.75 0.85z" fill="#8A7E54"/>
		<path d="m123.45 126c-0.601-0.434-1.184-0.8-1.75-1.1l0.6-1.851 0.8 0.25 0.101 0.25c0.133 0.367 0.233 1.101 0.3 2.2l0.05 0.3-0.1-0.05z" fill="#8A7E54"/>
		<path d="m125.95 125.5v-4.95h0.1l0.9 0.2c0 3.634-0.066 6.366-0.2 8.2-0.47-1.5-0.73-2.65-0.8-3.45z" fill="#8A7E54"/>
		<path d="m118 122.65l-1.25-1.25c1 0.199 2.25 0.533 3.75 1v1.899l-0.15-0.1c-0.87-0.43-1.65-0.95-2.35-1.55z" fill="#8A7E54"/>
		<polygon points="115.65 118.75 120.35 119.55 116.45 121.05 116.4 121 115.65 120.35" fill="#8A7E54"/>
		<path d="m124.9 124.75l0.25 0.85c0.3 0.801 0.816 2 1.55 3.601l-0.05 0.55-0.25-0.3c-0.5-0.9-0.9-1.55-1.2-1.95l-0.7-0.7 0.4-2.05z" fill="#8A7E54"/>
		<path d="m26.75 167.25l-0.2 0.7c-0.033 1.2 0.017 2.95 0.15 5.25l0.05-5.95zm0.3-2.25l-0.85 0.75c-0.3 0.434-0.367 1.434-0.2 3 0.267-0.134 0.45-0.4 0.55-0.8 0.067-1.23 0.233-2.22 0.5-2.95zm-1.35 0l1.4-0.15-0.05 0.15 0.2-0.15c-0.1 2 0.233 4.267 1 6.801 0.6-0.434 0.867-1.601 0.8-3.5 0.167 1 0.35 1.783 0.55 2.35l-3.95 5.2 0.05-10.7z" fill="#8A7E54"/>
		<path d="m30.25 169.45c0.576-1.793 0.91-3.151 1-4.075-0.033 0.441-0.05 1.483-0.05 3.125l-1 1.25 0.05-0.3z" fill="#8A7E54"/>
		<path d="m123.2 162.75v-0.45l4.25-0.05v7.8c0 0.467 0.066 1.384 0.2 2.75 0.033 1.267-0.117 2.15-0.45 2.65l-2.75-3.25 0.25-0.601c1.233 0.334 1.733 0.117 1.5-0.649-0.566-1-0.917-1.717-1.05-2.15-0.267-0.8-0.167-1.5 0.3-2.1 0.366-0.066 0.6-0.167 0.7-0.3 0.133-0.134 0.283-0.45 0.449-0.95l0.351-0.95-7.2-2.15 3.2-0.05 0.25 0.45z" fill="#8A7E54"/>
		<polygon points="112.75 162.45 114.25 162.4 114.45 162.8 111 164.35 110.55 163.95 110.65 163.35" fill="#8A7E54"/>
		<path d="m32.7 28.75l-0.5 1c0 0.433 0.083 0.95 0.25 1.55-0.567 0.133-1.467 0.2-2.7 0.2l-0.05-1.25-1.75-0.25 0.05 1.4-0.55 0.05c0.064-0.416 0.064-0.816 0-1.2l-1.6-1.5h6.85z" fill="#6F6543"/>
		<path d="m33.2 31.05l0.1-2.3h3v1.4c-1.233 0.2-2.066 0.417-2.5 0.65l-0.6 0.25z" fill="#6F6543"/>
		<path d="m28 31.4l-0.05-1.4 1.75 0.25 0.2 4.2c0.067 1.2 0 2.267-0.2 3.2v0.25c-0.6-0.333-0.967-1.283-1.1-2.85l-0.6-3.65z" fill="#6F6543"/>
		<path d="m33.3 28.75l-0.1 3.65 0.05 0.8-0.3-0.6-0.5-1.3c-0.167-0.6-0.25-1.117-0.25-1.55l0.5-1h0.6z" fill="#6F6543"/>
		<path d="m122.9 32.95l-0.2-1.45-1.5 0.5v0.4c-2.566-0.933-4.483-1.533-5.75-1.8v-0.85h15.35l0.1 14.25c-0.2 0.267-0.417 0.333-0.65 0.2-0.1-0.067-0.217-0.3-0.35-0.7-0.101-0.4-0.167-0.65-0.2-0.75-0.5-1.733-0.816-2.783-0.95-3.15-0.5-1.567-0.75-2.383-0.75-2.45 0-0.4-0.017-0.683-0.05-0.85 0-0.333-0.066-0.617-0.2-0.85-0.566 0.233-0.917 0.85-1.05 1.85-0.134-0.767-0.217-1.35-0.25-1.75 0.033-0.267 0.05-0.483 0.05-0.65 0-0.267-0.033-0.467-0.1-0.6-0.2-0.367-0.75-0.633-1.65-0.8l-1.85-0.55z" fill="#6F6543"/>
		<path d="m123.35 35.45l0.15 3.45c-0.066-0.433-0.25-0.967-0.55-1.6l-1.15-2.45c-0.399-0.967-0.6-1.783-0.6-2.45v-0.4l1.5-0.5 0.2 1.45c0.03 0.167 0.18 1 0.45 2.5z" fill="#6F6543"/>
		<path d="m123.65 58.1c0-1.333 0.033-2.184 0.1-2.55 0.134 0.367 0.233 0.85 0.3 1.45 0.066 0.333 0.117 0.8 0.15 1.4 0.166 1.167 0.583 3.5 1.25 7l0.399 2.15-1 0.55-0.05-0.05-1.1-1.55-0.05-8.4z" fill="#6F6543"/>
		<path d="m122.5 77.9l0.05-1.9c0-1.133 0.066-1.9 0.2-2.3l0.85 0.1c-0.033 0.967-0.183 1.95-0.449 2.95l-0.051 0.3c-0.366 1.767-0.583 3.8-0.649 6.101 0-3.101 0.02-4.851 0.05-5.251z" fill="#6F6543"/>
		<path d="m124.85 68.1l1.101-0.6c0.767-0.033 1.217 0.467 1.35 1.5 0.033 0.533 0.017 1.25-0.05 2.15l-0.05 0.65 0.05 0.3c0 0.467 0.033 1.2 0.1 2.2 0.034 0.9-0.017 1.6-0.149 2.1l-0.05 0.25c-0.301-0.7-0.667-1.267-1.101-1.7l-0.1-3.45-1 1.5v1.1l-0.45-0.15-3-0.45c-1.1-0.1-1.967-0.183-2.6-0.25-1.167-0.133-1.983-0.383-2.45-0.75l8.35-4.4h0.05z" fill="#6F6543"/>
		<path d="m124.95 73l1-1.5 0.1 3.45c0.134 2.233 0.101 4-0.1 5.3l-0.1 0.75-0.449 2c-0.067 0.267-0.2 0.7-0.4 1.3-0.134 0.533-0.217 0.967-0.25 1.3l0.2-12.6z" fill="#6F6543"/>
		<path d="m117.5 103.05l-0.05 6.7-0.75-0.75c0-1.667 0.017-2.684 0.05-3.05 0.1-1.23 0.35-2.2 0.75-2.9z" fill="#6F6543"/>
		<path d="m120.95 111.5l-0.75-1v-3.15c0.033-0.233 0.217-1.017 0.55-2.35 0.111-0.468 0.178-0.884 0.2-1.25v7.75z" fill="#6F6543"/>
		<path d="m126.75 103.65l-0.3 3.1c-0.066 0.733-0.117 1.934-0.15 3.6 0 1.567-0.05 2.75-0.149 3.551-0.134 1.066-0.2 1.85-0.2 2.35v9.25c0.066 0.8 0.333 1.95 0.8 3.45l0.1 0.649-0.15-0.4c-0.733-1.601-1.25-2.8-1.55-3.601l-0.25-0.85 0.05-1.5c0.1-1.167 0.166-2.083 0.2-2.75 0.033-1.167-0.117-2-0.45-2.5l-0.5 0.65v-1.4l1.25-3c0-1.267 0.083-2.684 0.25-4.25 0.133-1.033 0.45-2.983 0.95-5.85l0.1-0.5z" fill="#6F6543"/>
		<path d="m123.75 119.3l0.95-1.3c0.333 0.5 0.483 1.333 0.45 2.5-0.034 0.667-0.101 1.583-0.2 2.75l-0.05 1.5-0.4 2.05c-0.134 0.834-0.233 2.134-0.3 3.9-0.135 2.067-0.218 3.959-0.25 5.675v-4.575c-0.033-2.2-0.167-4.116-0.4-5.75l-0.05-0.3c-0.066-1.1-0.167-1.833-0.3-2.2l-0.101-0.25c0.301 0.167 0.584 0.217 0.851 0.15 0.23-1.87 0.17-3.25-0.2-4.15z" fill="#6F6543"/>
		<path d="m121.75 122.8l0.55 0.25-0.95 2.851c-0.517 1.485-0.816 2.644-0.899 3.475 0.099-1.516 0.115-3.208 0.05-5.075v-1.9l1.25 0.4z" fill="#6F6543"/>
		<path d="m120.35 119.55h0.101l2.75-1.05 0.25 0.3c0.066 0.066 0.166 0.233 0.3 0.5 0.366 0.9 0.434 2.283 0.2 4.15-0.267 0.066-0.55 0.017-0.851-0.15l-0.8-0.25-0.55-0.25-1.25-0.399c-1.5-0.467-2.75-0.801-3.75-1l-0.8-0.15 0.45-0.15 0.05-0.05 3.9-1.5z" fill="#6F6543"/>
		<polygon points="33.45 116.75 36.3 116.5 36.3 120.75 35.5 121.25 34.2 121.8" fill="#6F6543"/>
		<path d="m25.45 117.5l2.55-0.25c0.133 0.167 0.283 0.25 0.45 0.25l-0.1-0.25 5.1-0.5v5.3c-0.934 0.334-1.6 0.617-2 0.851v-1.9l-1.25 1.75 0.05 1.1-0.85 0.85c-0.3 0.366-0.583 0.983-0.85 1.85-0.133 0.667-0.316 1.2-0.55 1.601-0.167-0.134-0.35-0.334-0.55-0.601l-0.15-0.3c-0.267-0.533-0.633-0.783-1.1-0.75-0.167 0-0.383 0.1-0.65 0.3-0.233 0.233-0.5 0.667-0.8 1.3-0.067-0.366-0.1-0.916-0.1-1.649 0.033-1.434 0.05-2.5 0.05-3.2 0.1-0.9 0.167-1.6 0.2-2.1l0.2-2.7c0.133-0.83 0.25-1.15 0.35-0.95z" fill="#6F6543"/>
		<path d="m31.45 121l-0.1 4.15c-0.1 1.366-0.15 2.733-0.15 4.1v0.25c0 0.967-0.117 2.384-0.35 4.25-0.226 1.841-0.359 3.216-0.4 4.125 0.03-1.39-0.037-5.349-0.2-11.875l-0.05-3.25 1.25-1.75z" fill="#6F6543"/>
		<path d="m34.2 121.8l-0.05 1.851-0.2 1.899c0 0.167 0.017 0.617 0.05 1.351 0 0.533-0.033 0.966-0.1 1.3-0.2-0.467-0.333-1.167-0.4-2.101 0-1.033-0.017-1.75-0.05-2.149v-7.2l0.75 5.05z" fill="#6F6543"/>
		<path d="m26.55 167.95l0.2-0.7-0.05 5.95c-0.133-2.3-0.183-4.05-0.15-5.25z" fill="#6F6543"/>
		<path d="m26 168.75c-0.167-1.566-0.1-2.566 0.2-3l0.85-0.75c-0.267 0.733-0.433 1.717-0.5 2.95-0.1 0.4-0.283 0.67-0.55 0.8z" fill="#6F6543"/>
		<path d="m36.3 161.15l1.75 1.35c-0.633 0.3-1.133 0.667-1.5 1.1l-0.95-0.8c-1.1 1.867-2.1 3.233-3 4.101l-1.4 1.6c0-1.642 0.017-2.684 0.05-3.125-0.09 0.924-0.424 2.282-1 4.075l-0.05 0.3-0.6 0.75c-0.2-0.566-0.383-1.35-0.55-2.35 0.067 1.899-0.2 3.066-0.8 3.5-0.767-2.534-1.1-4.801-1-6.801l9.05-7.899v4.19z" fill="#6F6543"/>
		<path d="m126.95 164.5l-0.351 0.95c-0.166 0.5-0.316 0.816-0.449 0.95-0.101 0.133-0.334 0.233-0.7 0.3-0.467 0.6-0.566 1.3-0.3 2.1 0.133 0.434 0.483 1.15 1.05 2.15 0.233 0.767-0.267 0.983-1.5 0.649l-0.25 0.601c-2.434-2.9-4-4.65-4.7-5.25-1-0.9-2.25-2.5-3.75-4.8l-1.55 0.649-0.45-0.85 1.7-0.65v-0.149l11.25 3.35z" fill="#6F6543"/>
		<path d="m24.3 40.25c-0.6 2.5-0.95 4-1.05 4.5l-1.1 4.7 0.15-20.7h3.55l1.6 1.5c0.066 0.4 0.066 0.817 0 1.25-0.133 1.367-0.817 3.117-2.05 5.25-0.367 0.633-0.733 1.8-1.1 3.5z" fill="#6F6543"/>
		<path d="m27.45 68.2c-0.3 0.133-0.5 0.05-0.6-0.25-0.1-0.233-0.167-0.75-0.2-1.55 0-0.767-0.066-1.233-0.2-1.4l1.25-7.5c0 1.133 0.05 2.85 0.15 5.15 0 2.067-0.117 3.783-0.35 5.15l-0.05 0.4z" fill="#6F6543"/>
		<path d="m24.95 69.25l8.5-1c0.1 0.7-0.017 1.817-0.35 3.35l-0.4 1.7c-0.133 0.767-0.4 1.934-0.8 3.5l-0.15 0.75c-0.2 1.534-0.45 2.733-0.75 3.601l-0.3 0.75 0.3-7.351c-0.133 0.133-0.333 0.267-0.6 0.4-0.3 0.133-0.5 0.25-0.6 0.35-0.233 0.2-0.483 0.6-0.75 1.2-0.367 0.667-0.65 1.45-0.85 2.35-0.167 0.533-0.4 1.317-0.7 2.35l-0.5 1.25c-0.067-0.4-0.083-0.9-0.05-1.5l0.05-1.5-0.05-0.7c-0.067-0.6-0.25-1.183-0.55-1.75-0.4-0.7-0.867-1.05-1.4-1.05l-0.05-0.5c-0.067-0.833-0.083-1.867-0.05-3.1 0.033-1.4 0.05-2.433 0.05-3.1z" fill="#6F6543"/>
		<path d="m36.05 74.45l-0.75 4.55c-0.167 0.767-0.55 1.884-1.15 3.35l-0.2 0.75c0.1-1.699 0.183-4.25 0.25-7.649v-1.951l1.95-2.45 0.05-0.05v0.05c0.033 0.733-0.017 1.867-0.15 3.4z" fill="#6F6543"/>
		<path d="m31.2 115.25l-1.25-2.5c-0.1-0.066-0.217-0.267-0.35-0.6-0.133-0.634-0.133-1.684 0-3.15 0.2-1.4 0.316-2.233 0.35-2.5l1.25-6.45v15.2z" fill="#6F6543"/>
		<path d="m34.15 109.9c-0.2-1-0.15-2.084 0.15-3.25 0.034-0.2 0.117-0.434 0.25-0.7 0.3 0.633 0.467 1.5 0.5 2.6 0 0.601-0.033 1.5-0.1 2.7l-0.5-0.5c-0.133-0.2-0.233-0.48-0.3-0.85z" fill="#6F6543"/>
		<path d="m27.425 107.48c-7e-3 0.674-0.032 1.732-0.075 3.176-0.033 2.366 0.05 4.116 0.25 5.25l-0.4-0.65c-0.167-2.566-0.25-3.983-0.25-4.25 0-0.434 0.1-1.15 0.3-2.15 0.094-0.54 0.152-1 0.175-1.38z" fill="#6F6543"/>
		<path d="m27.6 115.9l0.75 1.35 0.1 0.25c-0.167 0-0.317-0.083-0.45-0.25s-0.267-0.62-0.4-1.35z" fill="#6F6543"/>
		<path d="m29.45 161.75l-1.7-2.95-0.05-0.05c-0.1-1.5-0.167-2.667-0.2-3.5-0.067-1.533 0.083-2.667 0.45-3.4l0.1 1.15c0.067 0.934 0.284 2.083 0.65 3.45 0.567 2.23 0.817 4 0.75 5.3z" fill="#6F6543"/>
		<path d="m33.2 147.68c-3e-3 1.719-0.07 3.294-0.2 4.726 0 0.466-0.067 1.383-0.2 2.75-0.026 0.985 0.057 1.735 0.25 2.25l-0.5-1.051-0.1-0.1c0-0.967 0.133-2.417 0.4-4.35 0.219-2.13 0.336-3.54 0.35-4.23z" fill="#6F6543"/>
		<path d="m119.7 146.28v13.875l-0.75-3.4c-0.066-1.3 0.033-3.116 0.3-5.45 0.26-2.26 0.41-3.93 0.45-5.03z" fill="#6F6543"/>
		<path d="m122.25 155.95c0.434-2.101 0.684-3.517 0.75-4.25l0.1-0.65c0.173-1.895 0.281-3.895 0.325-6-0.01 4.232-0.085 9.982-0.225 17.25v0.45l-1.5-2.5c0.03-1.1 0.22-2.53 0.55-4.3z" fill="#6F6543"/>
	</g>
	<path d="m80.25 153c3.8-0.033 7.434 0.15 10.9 0.55 6 0.667 14.1 0.667 24.3 0l12 9c-1.533 0.667-3.75 1-6.65 1l-89.5-0.3-6-2.7 11.85-7.649c4.533-0.233 12.917-0.233 25.15 0 3.567 0.07 9.55 0.1 17.95 0.1z" fill="#E7D9A3" fill-rule="evenodd"/>
	<path d="m115.8 106.9l11.65 8c-0.367 0.666-0.934 1.333-1.7 2-1.5 1.333-3.15 2-4.95 2l-89.5-0.351-6-2.649 11.85-8 4.35-0.301c4.467-0.166 10.517-0.183 18.15-0.05 7.467 0.134 13.7 0.101 18.7-0.1 2.834-0.101 6.767-0.283 11.801-0.55 8.432-0.23 16.979-0.23 25.649 0z" fill="#E7D9A3" fill-rule="evenodd"/>
	<path d="m125.75 68.4c-1.5 1.434-3.15 2.15-4.95 2.15l-89.5-0.15-6-1.35 11.15-4.65c3.233 0.133 10.966 0.25 23.2 0.35 7.5 0.067 13.733 0.05 18.7-0.05 2.834-0.067 6.767-0.167 11.801-0.3 8.433-0.1 16.983-0.267 25.649-0.5l11.65 2.35c-0.37 0.733-0.93 1.45-1.7 2.15z" fill="#E7D9A3" fill-rule="evenodd"/>
	<g fill-rule="evenodd">
		<path d="m114.15 114.4l0.3-0.051 10.8-0.85 1.3 0.9c-1.666 0-2.95 0.05-3.85 0.149l-8.55-0.15z" fill="#D3C695"/>
		<path d="m26.2 115.3l0.3-0.2c3.267 0 6.9-0.133 10.9-0.399 4.4-0.334 10.184-0.483 17.35-0.45 3.867 0 8.867 0.05 15 0.15 2.4 0 7.6 0.166 15.6 0.5h-43.7c-5.333 0-10.483 0.13-15.45 0.4z" fill="#D3C695"/>
		<path d="m116.15 112.4c-3.367 0.233-6.784 0.416-10.25 0.55-7.101 0.333-16.017 0.333-26.75 0-12.767-0.334-21.417-0.483-25.95-0.45-8.733 0.066-16.7 0.3-23.9 0.7l1.55-1.05 25.75-0.55c4.267-0.066 10.4 0.067 18.4 0.4s14.05 0.467 18.15 0.4c3.966-0.067 13.733-0.467 29.3-1.2l0.75 0.649h-0.2l0.15 0.101c-2.83 0.2-5.17 0.35-7 0.45z" fill="#D3C695"/>
		<path d="m92.35 106.85l9.25 0.15c0.867 0 2.834-0.066 5.9-0.2 3.3 0 6.066 0.033 8.3 0.101l0.55 0.35c-5.333 0.533-9.55 0.8-12.649 0.8-1.867 0-3.783-0.116-5.75-0.35-1.167-0.13-3.033-0.42-5.6-0.85z" fill="#D3C695"/>
		<path d="m116.65 66.15l-10.5-0.35c-9.11-0.35-21.178-0.667-36.2-0.95 3.117-0.05 5.916-0.1 8.399-0.15 2.834-0.067 6.767-0.167 11.801-0.3l11.649-0.2 18.851 0.65 5.399 1.1-9.4 0.2z" fill="#D3C695"/>
		<path d="m42.35 64.55l8.7 0.1h-1.35c-1.067 0-2.583 0.117-4.55 0.35-0.4 0.067-3.017 0.433-7.85 1.1l-7.55 1.1 4.7-1.95c0.733-0.067 1.333-0.1 1.8-0.1 3.033-0.167 5.067-0.367 6.1-0.6z" fill="#D3C695"/>
		<path d="m85.45 109.1c4.866 0.534 8.55 0.817 11.05 0.851 5.033 0 12.5-0.316 22.4-0.95l0.75 0.55 0.949-0.149 0.301 0.3c-9.601 0.566-16.684 0.95-21.25 1.149-4.634 0.2-10.15-0.066-16.551-0.8-6.966-0.8-12.033-1.2-15.2-1.2-3.267 0.034-6.017-0.083-8.25-0.35-1.033-0.134-2.917-0.467-5.65-1l5.85 0.05c0.4 0.101 0.783 0.15 1.15 0.15 3.667 0.233 8.717 0.416 15.15 0.55 1.268 0 4.368 0.28 9.301 0.85z" fill="#D3C695"/>
		<path d="m36.5 108.35l0.65-0.449 2-0.15c4.967 0.434 8.35 0.65 10.15 0.65 3.267 0.033 4.6 0.283 4 0.75-0.566 0.466-2.583 0.767-6.05 0.899-3.267 0.134-7.8 0.2-13.6 0.2l1.25-0.85c3.434-0.067 5.717-0.2 6.85-0.4l-5.25-0.65z" fill="#D3C695"/>
		<path d="m70.65 67.05c-8.1 0.3-16.816 0.517-26.15 0.65 1.8-0.5 2.917-0.784 3.35-0.85 1.167-0.2 2.933-0.3 5.3-0.3h25.1c3.3 0 7.483 8e-3 12.55 0.025l-20.15 0.475z" fill="#D3C695"/>
		<polygon points="31.3 70.4 29.95 70.1 32.25 69.85 34.45 70.4" fill="#D3C695"/>
		<path d="m63.55 160c-3.9-0.033-9.983-0.15-18.25-0.35s-14.283-0.317-18.05-0.351l1.1-0.7 5.95 0.051c1.7 0.033 8.767 0.199 21.2 0.5 6.4 0.166 11.833 0.233 16.3 0.199 3.334-0.033 10.066-0.233 20.2-0.6 9.033-0.366 15.167-0.517 18.4-0.45 2.433 0.033 6.616 0.2 12.55 0.5l0.399 0.7 0.101 0.1c-5.467-0.333-12.351-0.333-20.65 0-8.5 0.334-15.05 0.517-19.649 0.551-2.168 0.03-8.701-0.02-19.601-0.15z" fill="#D3C695"/>
		<path d="m115.45 153.55l0.7 0.5-5.601-0.25c1.97-0.07 3.6-0.15 4.9-0.25z" fill="#D3C695"/>
		<path d="m75.4 153.35c-2.434-0.133-4.017-0.25-4.75-0.35 3.333 0.033 6.966 0.033 10.9 0 2.733 0 5.417 0.134 8.05 0.4-2.767 0.133-4.683 0.199-5.75 0.199-1.534 0.03-4.35-0.05-8.45-0.25z" fill="#D3C695"/>
		<path d="m33 155.55l1.3-0.8c8.333 0.333 14.217 0.517 17.65 0.55 20.8 0.467 35.95 0.65 45.45 0.55 3.433-0.033 6.85-0.116 10.25-0.25 2.6-0.066 6.183 0.084 10.75 0.45l0.399 0.05 1.351 1c-5.2-0.233-9.351-0.333-12.45-0.3-7.8 0.167-14.15 0.283-19.05 0.351-8.834 0.1-18.101-0.034-27.8-0.4-2.167-0.07-11.45-0.47-27.85-1.2z" fill="#D3C695"/>
		<path d="m126.05 65.95l1.4 0.3c-0.367 0.733-0.934 1.45-1.7 2.15-1.5 1.434-3.15 2.15-4.95 2.15l-86.35-0.15-7.8-1.9 0.4-0.2c3.9-0.367 7.867-0.55 11.9-0.55l5.55-0.05c9.333-0.133 18.05-0.35 26.15-0.65l55.4-1.1z" fill="#FBF1CD"/>
		<path d="m118.95 113.4l-4.8 1 12.8 0.149 0.5 0.351c-0.367 0.666-0.934 1.333-1.7 2-1.5 1.333-3.15 2-4.95 2l-89.5-0.351-6-2.649 0.9-0.601c4.966-0.267 10.117-0.399 15.45-0.399h53.5l-3.351-0.65h10.65c4.333 0 8.166-0.167 11.5-0.5 2-0.23 3.67-0.35 5-0.35z" fill="#FBF1CD"/>
		<path d="m31.3 163.25l-6-2.7 0.7-0.45c2.333-0.133 5.817-0.199 10.45-0.199 15.233 0 25.9 0.216 32 0.649 4.7 0.367 10.017 0.566 15.95 0.601 6.1 0.066 11.116-0.067 15.05-0.4 4.166-0.366 8.483-0.533 12.95-0.5 5.199 0.066 9.633 0.4 13.3 1l1.75 1.3c-1.533 0.667-3.75 1-6.65 1l-89.5-0.3z" fill="#FBF1CD"/>
	</g>
	<path d="m16.3 66.25c0.2-19.5 0.317-32 0.35-37.5h6.3c-0.067 1.333-0.267 4-0.6 8-0.267 4.1-0.283 7.817-0.05 11.15 0.3 4 0.367 13.483 0.2 28.45-0.133 13.133-0.317 22.534-0.55 28.2-0.2 5.8 0.466 30.25 2 73.351h-5.3c-1.333-25.567-1.783-41.45-1.35-47.65 0.267-3.7 0.184-14.333-0.25-31.9-0.5-20.4-0.75-31.1-0.75-32.1z" fill="#FBF1CD" fill-rule="evenodd"/>
	<path d="m128.55 56.7c0-2.867 0.084-11.85 0.25-26.95h5.3c-0.033 2.1-0.183 8.6-0.449 19.5-0.267 9.933-0.4 16.567-0.4 19.9 0.033 3.2 0.033 13.466 0 30.8 0.033 16.533 0.184 26.717 0.45 30.55 0.467 6.2 0.05 22-1.25 47.4h-5.3c1.033-41.101 1.433-64.534 1.199-70.301-0.133-3.433-0.149-11.866-0.05-25.3 0.17-14.067 0.25-22.6 0.25-25.6z" fill="#FBF1CD" fill-rule="evenodd"/>
	<path d="m17.3 66.25c0.2-19.5 0.317-32 0.35-37.5h6.3c-0.067 1.333-0.267 4-0.6 8-0.267 4.1-0.283 7.817-0.05 11.15 0.3 4 0.367 13.483 0.2 28.45-0.133 13.133-0.317 22.534-0.55 28.2-0.2 5.8 0.466 30.25 2 73.351h-5.3c-1.333-25.567-1.783-41.45-1.35-47.65 0.267-3.7 0.184-14.333-0.25-31.9-0.5-20.4-0.75-31.1-0.75-32.1z" fill="#D3C58F" fill-rule="evenodd"/>
	<path d="m129.55 56.7c0-2.867 0.084-11.85 0.25-26.95h5.3c-0.033 2.1-0.183 8.6-0.449 19.5-0.267 9.933-0.4 16.567-0.4 19.9 0.033 3.2 0.033 13.466 0 30.8 0.033 16.533 0.184 26.717 0.45 30.55 0.467 6.2 0.05 22-1.25 47.4h-5.3c1.033-41.101 1.433-64.534 1.199-70.301-0.133-3.433-0.149-11.866-0.05-25.3 0.17-14.067 0.25-22.6 0.25-25.6z" fill="#D3C58F" fill-rule="evenodd"/>
	<g fill="#C5B578" fill-rule="evenodd">
		<path d="m95.15 26.85c-0.2-0.033-0.5-0.05-0.9-0.05l0.15-1.65 0.75 0.05v1.65z"/>
		<polygon points="58.75 24.8 58.65 23.45 59.9 23.45 60 24.8"/>
		<polygon points="55.2 24.75 55.15 23.45 56.4 23.45 56.45 24.75"/>
		<polygon points="52.9 24.8 52.85 23.45 53.7 23.45 53.75 24.8"/>
		<polygon points="63.6 24.9 63.55 23.5 64.45 23.55 64.55 24.9"/>
		<rect x="50.6" y="23.45" width=".95" height="1.35"/>
		<polygon points="48.95 24.8 48.85 23.45 49.75 23.45 49.8 24.8"/>
		<polygon points="60.8 24.85 60.7 23.45 61.5 23.5 61.65 24.85"/>
		<path d="m87.1 24.8c0.334 0 0.601 0.017 0.801 0.05l-0.051 1.5-0.75-0.05v-1.5z"/>
		<path d="m83.75 24.6l0.1 1.4c-0.366 0-0.633-0.017-0.8-0.05v-1.4l0.7 0.05z"/>
		<polygon points="47.2 24.8 47.1 23.5 47.45 23.45 47.6 24.8"/>
		<polygon points="81.4 24.4 81.4 25.85 80.4 25.75 80.4 24.35"/>
		<polygon points="77.9 25.6 77.9 24.15 78.55 24.2 78.6 25.6"/>
		<polygon points="71.25 25.15 70 25.1 69.9 23.7 71.2 23.75"/>
		<polygon points="92.45 26.65 91.45 26.6 91.5 25.05 92.45 25.05"/>
		<polygon points="23.35 28.75 23.95 28.75 23.55 33.55"/>
		<polygon points="24.55 27.45 23.35 28.4 23.3 26.6 24.6 25.8"/>
		<polygon points="44 24.7 43.85 23.5 45.15 23.5 45.25 24.75"/>
		<path d="m17.3 66.25l0.05-8.65 0.05 0.85c0.133 8.433 0.217 16.483 0.25 24.149-0.233-8.566-0.35-14.016-0.35-16.349z"/>
		<path d="m21.3 52.3c-0.6-5.167-1.017-13.017-1.25-23.55h0.75l0.55-0.55c0.267 12.933 0.5 20.483 0.7 22.65 0.5 4.833 0.75 12.35 0.75 22.55 0 2.3-0.033 8.317-0.1 18.05-0.034 5.467 0 10.1 0.1 13.899l0.15 4.25c0.066 5.134 0.433 19.084 1.1 41.851-0.367 11.3-0.55 18.883-0.55 22.75l0.05 3.7h-0.7c-0.167-5.2-0.184-10.051-0.05-14.551 0.367-8 0.583-13.3 0.65-15.899 0.167-4.033 0.033-9.283-0.4-15.75-0.433-7.066-0.7-12.634-0.8-16.7-0.033-1.033-0.1-6.6-0.2-16.7 0.067-11.133 0.1-19.417 0.1-24.85 0-9.667-0.283-16.717-0.85-21.15z"/>
		<polygon points="41.2 24.6 41.2 23.45 42.7 23.5 42.7 24.65"/>
		<path d="m34.6 24.7l-0.05-1.15c0.2-0.033 0.517-0.05 0.95-0.05l0.05 1.1-0.95 0.1z"/>
		<polygon points="27.85 25.9 26.75 26.3 26.55 24.95 27.6 24.6"/>
		<polygon points="32.75 24.85 32.6 23.65 33.85 23.55 34 24.7"/>
		<polygon points="127.8 27 128.9 27 128.9 28.5 127.8 28.3"/>
		<polygon points="66.4 25 66.4 23.6 68 23.65 68.05 25.05"/>
		<polygon points="86.45 24.75 86.5 26.25 85.55 26.15 85.55 24.7"/>
		<path d="m75.3 25.4l-0.85-0.05-0.05-1.4c0.367 0 0.633 0.017 0.8 0.05l0.1 1.4z"/>
		<path d="m133.6 45.75l-0.149-17.6c0.399 0.4 0.616 0.883 0.649 1.45 0.101 5.066 0.117 11.333 0.051 18.8-0.101 9.367-0.317 22.934-0.65 40.7 0 3.534-0.2 9.101-0.6 16.7-0.334 7.267-0.5 12.834-0.5 16.7 0.033 3.733 0.083 8.2 0.149 13.4 0.033 3.933-0.017 7.383-0.149 10.35-0.067 1.2-0.301 4.3-0.7 9.3-0.267 3.334-0.334 6.084-0.2 8.25 0.1 2.033 0.55 6.733 1.35 14.101h-0.95c-1-6.534-1.417-12.5-1.25-17.9 0.1-2.767 0.366-6.384 0.8-10.85 0.399-4.101 0.6-6.834 0.6-8.2 0.033-1.066 0-4.351-0.1-9.851-0.066-5.533-0.066-10.066 0-13.6 0.066-3.267 0.2-8.25 0.399-14.95 0.233-6.566 0.367-10.95 0.4-13.149 0.57-26.634 0.85-41.184 0.85-43.651z"/>
		<path d="m130.1 69.45c-0.066-10.5-0.1-16.483-0.1-17.95 0-2.367 0.15-9.583 0.45-21.65v-0.1h0.6l-0.05 7.15c-0.1 6.167-0.15 16.317-0.15 30.45 0.101 25.367 0.117 40.034 0.051 44-0.034 2.067-0.084 6.767-0.15 14.101-0.033 7.399-0.083 12.75-0.15 16.05-0.066 3.134-0.199 7.4-0.399 12.8-0.167 4.867-0.2 9.483-0.101 13.851 0.034 2.866 0.117 6.116 0.25 9.75h-1c-0.199-3.634-0.316-6.2-0.35-7.7-0.033-1.9 0.033-6.2 0.2-12.9 0.233-9.2 0.366-15.25 0.399-18.149 0.367-17.601 0.567-32.45 0.601-44.551 0.03-7.033 0-15.416-0.1-25.149z"/>
		<polygon points="130.45 29.1 130.45 27.05 131 27.15 131.05 29.45"/>
		<path d="m134.4 140.7l0.3 5.899-0.2 6.351c-0.967-9.2-1.2-18.066-0.7-26.601 0.233-4.366 0.4-9.383 0.5-15.05 0.066 7.3 0.167 12.8 0.3 16.5-0.23 5.3-0.3 9.6-0.2 12.9z"/>
		<path d="m19 57.6c-0.167-3.633-0.467-8.233-0.9-13.8-0.167-2.1-0.35-4-0.55-5.7l0.1-9.35h0.2l0.25 5.7c0.066 1.333 0.35 4.2 0.85 8.6 0.4 3.733 0.6 6.534 0.6 8.4 0 0.033 0.167 6.216 0.5 18.55 0.3 11.167 0.383 19.333 0.25 24.5-0.233 10.1-0.133 19.384 0.3 27.85 0.1 1.967 0.417 6 0.95 12.101 0.434 5.899 0.55 10.467 0.35 13.7-0.1 2-0.333 5.399-0.7 10.199-0.233 3.5-0.383 6.25-0.45 8.25-0.033 1.801 0.1 5.567 0.4 11.301h-1.15c-0.267-2.233-0.417-4.184-0.45-5.851-0.066-2.633 0.034-6.6 0.3-11.899 0.167-2.867 0.533-6.267 1.1-10.2 0.267-1.667 0.2-5.884-0.2-12.65-0.233-4.066-0.633-9.45-1.2-16.149-0.267-3.301-0.4-7-0.4-11.101 0.1-13.5 0.15-25.133 0.15-34.9 0-6.733-0.1-12.583-0.3-17.55z"/>
		<polygon points="94.25 26.8 93.5 26.75 93.6 25.15 94.4 25.15"/>
		<polygon points="96.2 26.9 95.15 26.85 95.15 25.2 96.2 25.25"/>
		<polygon points="39.1 24.55 38.25 24.55 38.25 23.45 39.15 23.45"/>
		<polygon points="104.2 27.3 102.65 27.25 102.65 25.5 104.2 25.6"/>
		<polygon points="109.45 27.45 108.55 27.45 108.55 25.8 109.45 25.85"/>
		<polygon points="106.4 27.35 105.65 27.35 105.7 25.65 106.65 25.7 106.6 27.4"/>
		<path d="m99.15 27.1v-1.75c0.199 0.033 0.466 0.05 0.8 0.05v1.7h-0.8z"/>
		<path d="m97.3 26.95l-0.1-1.65h0.8l0.1 1.7c-0.367 0-0.633-0.017-0.8-0.05z"/>
		<polygon points="125.05 26.9 125 28 124.25 28 124.3 26.85"/>
		<polygon points="120.45 27.95 118.75 27.85 118.65 26.45 120.5 26.6"/>
		<polygon points="122.05 26.7 122.75 26.75 122.7 27.95 122.05 27.95"/>
		<polygon points="114.55 27.6 113.1 27.55 113 26.05 114.45 26.15"/>
		<path d="m111.35 27.5l-0.05-1.55c0.4 0 0.7 0.017 0.9 0.05l0.05 1.55c-0.2-0.033-0.5-0.05-0.9-0.05z"/>
		<polygon points="115.4 27.65 115.25 26.2 116.5 26.25 116.7 26.3 116.9 27.75"/>
	</g>
	<path d="m133.45 26.1c-1.101 0.233-38.267-0.434-111.5-2l-7.3-1.65c2.5-0.233 5.133-0.467 7.9-0.7 5.533-0.5 8.917-0.75 10.15-0.75 2.3 0 11.8 0.117 28.5 0.35 18.233 0.267 29.816 0.483 34.75 0.65 7.566 0.2 17.967 0.117 31.2-0.25l11.649 1.7c-2.43 1.533-4.22 2.417-5.35 2.65z" fill="#E7D9A3" fill-rule="evenodd"/>
	<path d="m138.4 30.1c-23.134-0.3-41.067-0.417-53.801-0.35-12.733 0.033-36.05-0.3-69.95-1v-6.3c2.767-0.6 8.783-0.833 18.05-0.7 1.633 0 6.133 0.117 13.5 0.35 7.7 0.2 13.533 0.333 17.5 0.4 4.466 0.067 12.85 0.25 25.149 0.55 9.267 0.2 15.051 0.267 17.351 0.2 8.333-0.3 16.267-0.367 23.8-0.2 3.767 0.1 6.7 0.233 8.8 0.4l-0.4 6.65z" fill="#FBF1CD" fill-rule="evenodd"/>
	<path d="m70.95 161.9c9.166 0 19.566 0.116 31.2 0.35 5.699 0 14.133-0.233 25.3-0.7v5c-23.767-0.434-40.934-0.533-51.5-0.3-10.567 0.2-27.45 0.3-50.65 0.3v-6h18.15c1.167 0 5.2 0.233 12.1 0.7 6.867 0.43 12 0.65 15.4 0.65z" fill="#D3C58F" fill-rule="evenodd"/>
	<path d="m127.45 114.9l-0.3 6.649c-19.233 0-34.134 0.117-44.7 0.351-10.567 0.233-29.617 0.233-57.15 0v-6.351c2.067 0.233 6.95 0.351 14.65 0.351h26.35c9.134 0 19.75 0.116 31.851 0.35 5.699 0 15.469-0.45 29.299-1.35z" fill="#D3C58F" fill-rule="evenodd"/>
	<path d="m127.15 72.9c-19.233 0.167-34.134 0.417-44.7 0.75-10.567 0.333-29.617 0.533-57.15 0.6v-6.35c2.067 0.2 6.95 0.267 14.65 0.2l26.35-0.25c9.134-0.067 19.75-0.067 31.851 0 5.699-0.067 15.466-0.6 29.3-1.6l-0.3 6.65z" fill="#D3C58F" fill-rule="evenodd"/>
	<path d="m138.4 30.1c-23.134-0.3-41.067-0.417-53.801-0.35-12.733 0.033-36.05-0.3-69.95-1v-6.3c2.5 0.233 8.383 0.417 17.65 0.55l31.75 0.4c6.233 0.067 14.084 0.233 23.55 0.5 9.067 0.267 14.351 0.4 15.851 0.4 6.899 0.1 18.684-0.183 35.35-0.85l-0.4 6.65z" fill="#D3C58F" fill-rule="evenodd"/>
		<polygon points="91.75 67.85 92.3 67.85 92.4 73.4 91.65 73.45" fill="#C4B684" fill-rule="evenodd"/>
		<path d="m92.05 29.75h-0.75c0.3-1.6 0.45-3.517 0.45-5.75l0.5 0.05-0.2 5.7z" fill="#C4B684" fill-rule="evenodd"/>
		<path d="m90.2 116.15h1.1c0 0.1 0.15 1.966 0.45 5.6h-0.7c-0.066-0.366-0.25-1.35-0.55-2.95-0.167-0.8-0.267-1.68-0.3-2.65z" fill="#C4B684" fill-rule="evenodd"/>
		<path d="m51.75 68h1c-0.1 1.633-0.117 3.667-0.05 6.1h-0.8l-0.15-6.1z" fill="#C4B684" fill-rule="evenodd"/>
		<polygon points="51 29.4 49.65 29.4 48.85 23.2 50.4 23.25" fill="#C4B684" fill-rule="evenodd"/>
		<polygon points="49.55 166.5 50.25 163.1 50.1 166.5" fill="#C4B684" fill-rule="evenodd"/>
		<path d="m48.95 161c0 0.2-0.034 1.116-0.1 2.75-0.033 1.134-0.017 2.05 0.05 2.75h-0.15l-0.25-5.7h0.65l-0.2 0.2z" fill="#C4B684" fill-rule="evenodd"/>
		<path d="m47.45 115.9h0.7c0 1.433 0.1 3.483 0.3 6.149h-0.6l-0.4-6.15z" fill="#C4B684" fill-rule="evenodd"/>
		<polygon points="46.65 68.05 47.85 68.05 48.05 74.15 46.6 74.15" fill="#C4B684" fill-rule="evenodd"/>
		<polygon points="45.25 160.6 45.4 166.55 44.4 166.55 44.2 160.6" fill="#C4B684" fill-rule="evenodd"/>
		<polygon points="43.3 115.9 44.15 115.9 44.3 122 43.45 122" fill="#C4B684" fill-rule="evenodd"/>
		<polygon points="44.2 29.3 43.95 23.15 45.4 23.15 45.5 29.35" fill="#C4B684" fill-rule="evenodd"/>
		<polygon points="41.1 29.25 40.9 23.1 42.05 23.1 42.3 29.3" fill="#C4B684" fill-rule="evenodd"/>
		<path d="m43.45 74.15h-0.55c0.2-0.5 0.317-0.983 0.35-1.45l0.2 1.45z" fill="#C4B684" fill-rule="evenodd"/>
		<polygon points="40.9 115.9 41.9 115.9 42.2 122 41.05 122" fill="#C4B684" fill-rule="evenodd"/>
		<path d="m42.15 71.95c0.3 0.9 0.5 1.633 0.6 2.2h-0.95l-0.3-4.4c0.1 0.367 0.317 1.1 0.65 2.2z" fill="#C4B684" fill-rule="evenodd"/>
		<polygon points="41.75 166.55 41.95 165.6 41.95 166.55" fill="#C4B684" fill-rule="evenodd"/>
		<polygon points="55.95 29.5 54.4 29.45 54.1 23.3 55.5 23.3" fill="#C4B684" fill-rule="evenodd"/>
		<polygon points="55.1 115.9 56.1 115.9 56.15 122.05 55.15 122.05" fill="#C4B684" fill-rule="evenodd"/>
		<path d="m56.4 164.6l0.05-0.35-0.05 2.2h-0.2c0.033-0.13 0.1-0.75 0.2-1.85z" fill="#C4B684" fill-rule="evenodd"/>
		<path d="m55.45 161.5c-0.067 1.134 0.1 2.783 0.5 4.95h-0.7l0.15-5.2h0.2l-0.15 0.25z" fill="#C4B684" fill-rule="evenodd"/>
		<polygon points="56.75 67.95 58.3 67.95 58.55 74.05 57.05 74.05" fill="#C4B684" fill-rule="evenodd"/>
		<polygon points="38.2 29.2 38.1 23.05 39.2 23.1 39.3 29.25" fill="#C4B684" fill-rule="evenodd"/>
		<path d="m40.1 160.65c-0.267 0.933-0.35 2.066-0.25 3.399l-0.2 2.5h-0.8l0.2-6h1.05v0.1z" fill="#C4B684" fill-rule="evenodd"/>
		<polygon points="40.5 68.1 40.6 68.9 40.85 74.15 38.95 74.2 38.9 68.1" fill="#C4B684" fill-rule="evenodd"/>
		<polygon points="37.15 23.05 37.2 29.2 36.15 29.2 36.15 23.05" fill="#C4B684" fill-rule="evenodd"/>
		<polygon points="38.65 115.9 39.15 115.9 39.25 122 38.5 122" fill="#C4B684" fill-rule="evenodd"/>
		<path d="m36.2 115.9h1.15l0.05 6.1-1.55-0.05 0.05-1.95c0.133-0.63 0.233-2 0.3-4.1z" fill="#C4B684" fill-rule="evenodd"/>
		<path d="m38.65 166.55h-0.45c-0.034-1.133-0.15-3.133-0.35-6h0.55l0.25 6z" fill="#C4B684" fill-rule="evenodd"/>
		<polygon points="36 68.1 37.2 68.1 37.2 74.2 36.05 74.2" fill="#C4B684" fill-rule="evenodd"/>
		<polygon points="53.95 67.95 55.05 67.95 55.2 74.05 54.1 74.1" fill="#C4B684" fill-rule="evenodd"/>
		<path d="m52.35 29.45c-0.2-2.733-0.45-4.8-0.75-6.2h0.8l0.65 6.2h-0.7z" fill="#C4B684" fill-rule="evenodd"/>
		<polygon points="51.3 115.9 51.95 115.9 52.2 122.05 51.45 122.05" fill="#C4B684" fill-rule="evenodd"/>
		<polygon points="53.45 161.1 53.5 166.5 52.35 166.5 52.25 161" fill="#C4B684" fill-rule="evenodd"/>
		<path d="m84.4 67.8h0.7l0.351 5.75c-0.2 0.034-0.483 0.05-0.851 0.05l-0.2-5.8z" fill="#C4B684" fill-rule="evenodd"/>
		<polygon points="83.7 29.75 83.05 23.8 84.05 23.8 84.6 29.75" fill="#C4B684" fill-rule="evenodd"/>
		<polygon points="85.9 116.1 86.6 116.1 86.75 121.8 86.05 121.85" fill="#C4B684" fill-rule="evenodd"/>
		<polygon points="86.35 162 86.05 166.15 85.1 166.15 85.55 162" fill="#C4B684" fill-rule="evenodd"/>
		<polygon points="77.9 29.75 77.75 23.65 78.95 23.7 79.25 29.75" fill="#C4B684" fill-rule="evenodd"/>
		<polygon points="78.6 116 79.55 116 79.75 121.95 78.7 121.95" fill="#C4B684" fill-rule="evenodd"/>
		<polygon points="78.95 166.2 78.95 161.95 80.1 161.95 79.9 166.2" fill="#C4B684" fill-rule="evenodd"/>
		<path d="m79.2 67.8h0.95c0 1.267-0.067 3.233-0.2 5.9-0.2 0.033-0.5 0.05-0.9 0.05l0.15-5.95z" fill="#C4B684" fill-rule="evenodd"/>
		<polygon points="33.35 68.1 34.4 68.1 34.35 74.2 33.25 74.2" fill="#C4B684" fill-rule="evenodd"/>
		<path d="m34.2 29.15c0.3-1.667 0.383-3.717 0.25-6.15l0.75 0.05c0.233 2.267 0.367 3.983 0.4 5.15v0.95h-1.4z" fill="#C4B684" fill-rule="evenodd"/>
		<path d="m34.7 115.85c0 0.667-0.017 1.684-0.05 3.051-0.033 1.233-0.017 2.25 0.05 3.05h-1.1v-6.101h1.1z" fill="#C4B684" fill-rule="evenodd"/>
		<path d="m36.3 160.55l0.25 6h-0.9c0.033-2.133-0.017-4.133-0.15-6h0.8z" fill="#C4B684" fill-rule="evenodd"/>
		<path d="m74.45 69.6l0.1-1.8h0.8l-0.3 6.05h-1.2l0.25-4.6c0.133 0.867 0.167 2.267 0.1 4.2 0.167-0.6 0.25-1.883 0.25-3.85z" fill="#C4B684" fill-rule="evenodd"/>
		<polygon points="75.4 115.95 76.65 115.95 76.1 122 75.1 122" fill="#C4B684" fill-rule="evenodd"/>
		<polygon points="74.65 29.7 74.45 23.6 75.8 23.6 76 29.7" fill="#C4B684" fill-rule="evenodd"/>
		<path d="m76.4 166.25h-0.75v-0.85l0.1 0.8c0.233-0.467 0.417-1.05 0.55-1.75l0.1 1.8z" fill="#C4B684" fill-rule="evenodd"/>
		<path d="m70.7 67.8h1.35l-0.2 6.1h-1.15v-0.9c-0.033-1.467-0.033-3.2 0-5.2z" fill="#C4B684" fill-rule="evenodd"/>
		<path d="m72.55 115.9c0.2 0.033 0.483 0.05 0.85 0.05l-0.2 6.05h-0.9l0.25-6.1z" fill="#C4B684" fill-rule="evenodd"/>
		<polygon points="72.35 161.9 73.4 161.9 73.7 166.3 72.45 166.3" fill="#C4B684" fill-rule="evenodd"/>
		<polygon points="71.8 29.7 71.6 23.55 72.4 23.55 72.55 29.7" fill="#C4B684" fill-rule="evenodd"/>
		<polygon points="60.65 161.55 62.15 161.65 61.9 166.4 60.7 166.45" fill="#C4B684" fill-rule="evenodd"/>
		<path d="m64.55 115.9h0.75c-0.267 2-0.45 4.05-0.55 6.149h-0.65l0.45-6.15z" fill="#C4B684" fill-rule="evenodd"/>
		<path d="m62.85 29.6l-0.1-1.65c-0.033-1.034 0.017-2.55 0.15-4.55h0.65l0.3 6.2h-1z" fill="#C4B684" fill-rule="evenodd"/>
		<polygon points="64.4 67.85 65.35 67.85 65.75 73.95 64.6 74" fill="#C4B684" fill-rule="evenodd"/>
		<polygon points="87.5 116.1 88.15 116.1 88.25 121.8 87.4 121.8" fill="#C4B684" fill-rule="evenodd"/>
		<path d="m88.15 67.85h0.45l0.1 5.65h-0.7v-0.4c0-1.733 0.05-3.483 0.15-5.25z" fill="#C4B684" fill-rule="evenodd"/>
		<path d="m86.7 29.75c0.133-1.433 0.35-3.383 0.649-5.85l1.2 0.05c-0.467 2.433-0.783 4.367-0.95 5.8h-0.899z" fill="#C4B684" fill-rule="evenodd"/>
		<polygon points="87.95 162.05 89.25 162.05 88.7 166.15 87.5 166.15" fill="#C4B684" fill-rule="evenodd"/>
		<path d="m87.9 72.45l0.1 0.65-0.05 0.4c-0.334 0-0.601 0.017-0.8 0.05l-0.1-5.65c0.167 1.233 0.45 2.75 0.85 4.55z" fill="#C4B684" fill-rule="evenodd"/>
		<path d="m31.75 29.1l-0.7-6.1h1.25l0.1 0.8c0.067 1.2 0.217 2.967 0.45 5.3h-1.1z" fill="#C4B684" fill-rule="evenodd"/>
		<path d="m30.1 68.1h1.5l-0.2 6.1h-0.4c-0.3-0.767-0.667-1.483-1.1-2.15l0.2-3.95z" fill="#C4B684" fill-rule="evenodd"/>
		<path d="m32.45 160.55h1.25c0.233 2.033 0.383 4.033 0.45 6h-1c-0.167-2.03-0.4-4.03-0.7-6z" fill="#C4B684" fill-rule="evenodd"/>
		<path d="m28.65 115.75l1.1 0.05-0.05 1.2c-0.034 1.366-0.034 3.017 0 4.95h-0.9l-0.05-0.05-0.25-0.95 0.15-5.2z" fill="#C4B684" fill-rule="evenodd"/>
		<path d="m26.5 29v-3.55c0.033 1.186 0.133 2.336 0.3 3.45 0.567-0.3 1.034-1.25 1.4-2.85l0.05-0.05-0.05 3.05-1.7-0.05z" fill="#C4B684" fill-rule="evenodd"/>
		<path d="m29.5 166.55l-0.45-1.399c-0.1-1.167-0.316-2.7-0.65-4.601h1.1c0.333 2.033 0.517 4.033 0.55 6h-0.55z" fill="#C4B684" fill-rule="evenodd"/>
		<polygon points="20.1 22.7 20.85 28.9 19.75 28.85 19.1 22.7" fill="#C4B684" fill-rule="evenodd"/>
		<path d="m16.75 22.6c0.433 0 0.767 0.017 1 0.05l0.05 6.2-1.1-0.05c0.067-3.133 0.083-5.2 0.05-6.2z" fill="#C4B684" fill-rule="evenodd"/>
		<path d="m133.6 30.05h-0.149c0-0.667 0.066-1.6 0.2-2.8l-0.05 2.8z" fill="#C4B684" fill-rule="evenodd"/>
		<path d="m132.3 30l0.101-3.7 0.899 3.75c-0.43 0-0.77-0.017-1-0.05z" fill="#C4B684" fill-rule="evenodd"/>
		<path d="m59.65 23.35l0.3 6.2h-1.9l-0.05-0.6c0.233-2.133 0.367-4 0.4-5.6h1.25z" fill="#C4B684" fill-rule="evenodd"/>
		<polygon points="58.05 166.45 58.4 161.4 59.4 161.5 59.05 166.45" fill="#C4B684" fill-rule="evenodd"/>
		<polygon points="57.85 25.5 57.7 23.3 57.75 23.3" fill="#C4B684" fill-rule="evenodd"/>
		<path d="m58.5 115.9h1.3c0 1.3 0.117 3.35 0.35 6.149h-1.4l-0.25-6.15z" fill="#C4B684" fill-rule="evenodd"/>
		<polygon points="60.2 67.9 62.3 67.9 62.75 74 60.8 74" fill="#C4B684" fill-rule="evenodd"/>
		<polygon points="81.95 161.95 82.65 161.95 82.55 166.15 81.75 166.15" fill="#C4B684" fill-rule="evenodd"/>
		<polygon points="81.8 116 82.8 116.05 82.8 121.9 81.75 121.9" fill="#C4B684" fill-rule="evenodd"/>
		<polygon points="82 23.75 82.25 29.75 81.05 29.75 80.9 23.75" fill="#C4B684" fill-rule="evenodd"/>
		<polygon points="81.85 67.8 82.85 67.8 82.9 73.65 81.95 73.65" fill="#C4B684" fill-rule="evenodd"/>
		<path d="m67.75 67.85h1.35l-0.05 2.85c-0.033 1.066-0.033 2.133 0 3.2l-1.35 0.05c-0.067-1.767-0.05-3.8 0.05-6.1z" fill="#C4B684" fill-rule="evenodd"/>
		<polygon points="68.9 29.65 67.5 29.65 67.35 23.45 68.55 23.45" fill="#C4B684" fill-rule="evenodd"/>
		<path d="m68.9 115.9h1.3l-0.9 6.149h-1.25c0.067-0.9 0.35-2.95 0.85-6.15z" fill="#C4B684" fill-rule="evenodd"/>
		<polygon points="64.7 161.75 64.45 166.4 63.4 166.4 63.45 161.7" fill="#C4B684" fill-rule="evenodd"/>
		<polygon points="136.35 23.55 136.25 30.05 135.3 30.05 135.5 23.55" fill="#C4B684" fill-rule="evenodd"/>
		<polygon points="70.2 161.9 70.2 166.35 69.25 166.35 69.3 161.9" fill="#C4B684" fill-rule="evenodd"/>
		<path d="m66.5 161.8c0.2 0.033 0.5 0.05 0.9 0.05l-0.5 4.5-1.05 0.051 0.65-4.6z" fill="#C4B684" fill-rule="evenodd"/>
		<polygon points="90.2 28.5 90.1 29.7 89.35 29.75 89.85 23.95 90.2 24" fill="#C4B684" fill-rule="evenodd"/>
		<path d="m91.65 73.45h-0.2c0-1.2 0.05-2.383 0.149-3.55l0.051 3.55z" fill="#C4B684" fill-rule="evenodd"/>
		<path d="m91 73.45h-0.75l-0.05-5.6c0.133 1.267 0.4 3.133 0.8 5.6z" fill="#C4B684" fill-rule="evenodd"/>
		<polygon points="93.25 29.75 92.05 29.75 92.25 24.05 93.5 24.05" fill="#C4B684" fill-rule="evenodd"/>
		<polygon points="92.3 67.85 93.1 67.85 93.55 73.4 92.4 73.4" fill="#C4B684" fill-rule="evenodd"/>
		<path d="m90.1 116.15h0.1c0.033 0.966 0.133 1.85 0.3 2.649 0.3 1.601 0.483 2.584 0.55 2.95h-0.5l-0.45-5.6z" fill="#C4B684" fill-rule="evenodd"/>
		<path d="m93 121.75h-0.85c0.066-0.366 0.399-2.083 1-5.15l-0.15 5.15z" fill="#C4B684" fill-rule="evenodd"/>
		<path d="m92.15 166.15h-1.3l0.051-1.75-0.2 1.75h-0.8l0.149-1.5c0.233-0.567 0.65-1.417 1.25-2.551h0.95l-0.1 4.05z" fill="#C4B684" fill-rule="evenodd"/>
		<path d="m22.75 28.95l-0.15-6.15c0.467 0 0.816 0.017 1.05 0.05v1.85l0.55 4.25h-1.45z" fill="#C4B684" fill-rule="evenodd"/>
		<path d="m102.1 67.75l1.5-0.05c0.7 2.6 1.117 4.433 1.25 5.5h-1.65c-0.43-2.1-0.8-3.917-1.1-5.45z" fill="#C4B684" fill-rule="evenodd"/>
		<polygon points="101.75 162.25 101.45 166.2 100.25 166.2 100.45 162.25" fill="#C4B684" fill-rule="evenodd"/>
		<polygon points="104.4 116.1 105.4 116.05 105.1 121.65 104.25 121.65" fill="#C4B684" fill-rule="evenodd"/>
		<polygon points="101.75 29.75 101.65 24.3 103.25 24.3 103.05 29.75" fill="#C4B684" fill-rule="evenodd"/>
		<path d="m106.55 166.25l0.15-4.05c0.467 0 0.816-0.017 1.05-0.05l-0.25 4.149c-0.2-0.03-0.52-0.05-0.95-0.05z" fill="#C4B684" fill-rule="evenodd"/>
		<path d="m109.95 67.35c0.434 0 0.767-0.017 1-0.05 0.133 1.6 0.333 2.75 0.6 3.45 0.3 0.733 0.483 1.517 0.55 2.35h-1.25l-0.9-5.75z" fill="#C4B684" fill-rule="evenodd"/>
		<polygon points="109.2 115.9 110.75 115.85 110.4 121.6 108.85 121.6" fill="#C4B684" fill-rule="evenodd"/>
		<path d="m108.6 29.8l0.101-4.15c0.166 0.934 0.399 2.317 0.7 4.15h-0.8z" fill="#C4B684" fill-rule="evenodd"/>
		<polygon points="109.45 29.8 109.5 24.3 109.8 24.3 109.75 29.8" fill="#C4B684" fill-rule="evenodd"/>
		<polygon points="105.05 29.8 105.1 24.3 106.2 24.3 106.1 29.5 106.05 29.8" fill="#C4B684" fill-rule="evenodd"/>
		<polygon points="102.9 162.25 103.65 162.25 103.45 166.25 102.65 166.25" fill="#C4B684" fill-rule="evenodd"/>
		<path d="m105.3 67.6l1.351-0.05c0.3 1.467 0.833 3.333 1.6 5.6h-1.5c-0.1-0.566-0.316-1.417-0.65-2.55-0.37-1.333-0.63-2.333-0.8-3z" fill="#C4B684" fill-rule="evenodd"/>
		<polygon points="106.8 116 108 115.95 107.7 121.65 106.55 121.65 106.6 121.25" fill="#C4B684" fill-rule="evenodd"/>
		<polygon points="99.05 116.25 100.2 116.2 99.7 121.7 98.6 121.7" fill="#C4B684" fill-rule="evenodd"/>
		<path d="m97.05 29.75l0.101-5.6c0.233 0.033 0.55 0.05 0.949 0.05l-0.05 5.55h-1z" fill="#C4B684" fill-rule="evenodd"/>
		<path d="m97.8 67.85h1.2c0.267 1.933 0.6 3.733 1 5.4l-1.25 0.05-0.95-5.45z" fill="#C4B684" fill-rule="evenodd"/>
		<polygon points="97.7 162.2 97.45 166.2 95.8 166.15 96.15 162.15" fill="#C4B684" fill-rule="evenodd"/>
		<polygon points="93.7 162.15 94.7 162.15 94.5 166.15 93.6 166.15" fill="#C4B684" fill-rule="evenodd"/>
		<path d="m94.6 67.85h1.1c0 2.033 0.066 3.867 0.2 5.5h-0.9l-0.4-5.5z" fill="#C4B684" fill-rule="evenodd"/>
		<polygon points="96.1 29.75 94.9 29.75 95.1 24.1 96.15 24.15" fill="#C4B684" fill-rule="evenodd"/>
		<polygon points="94.5 116.2 96.15 116.2 96.05 121.7 94.55 121.75" fill="#C4B684" fill-rule="evenodd"/>
		<path d="m128.8 23.8l0.05 6.2h-0.8l-0.1-6.15c0.2-0.033 0.48-0.05 0.85-0.05z" fill="#C4B684" fill-rule="evenodd"/>
		<path d="m122.5 24c-0.134 0.333-0.267 0.5-0.4 0.5s-0.25-0.167-0.35-0.5h0.75z" fill="#C4B684" fill-rule="evenodd"/>
		<path d="m125.75 115.2c-0.033 0.7-0.134 1.75-0.3 3.149-0.101 1.301-0.15 2.367-0.15 3.2h-0.25l-0.3-6.5c0.467 0 0.816-0.017 1.05-0.05l-0.05 0.2z" fill="#C4B684" fill-rule="evenodd"/>
		<polygon points="124.95 161.65 125.05 166.55 124.3 166.5 124.35 161.7" fill="#C4B684" fill-rule="evenodd"/>
		<polygon points="125.6 66.35 125.7 66.35 125.65 72.9 125.2 72.9" fill="#C4B684" fill-rule="evenodd"/>
		<polygon points="125.05 29.95 125.15 23.9 126.05 23.9 126 24.3 126.05 29.95" fill="#C4B684" fill-rule="evenodd"/>
		<path d="m117.25 29.85h-1.05c-0.066-0.567-0.367-2.45-0.9-5.65l1.2-0.05c0.13 2.9 0.38 4.8 0.75 5.7z" fill="#C4B684" fill-rule="evenodd"/>
		<path d="m119.95 66.75l1.1-0.05v0.6c0 2.034-0.083 3.917-0.25 5.65-0.166 0.033-0.45 0.05-0.85 0.05v-6.25z" fill="#C4B684" fill-rule="evenodd"/>
		<path d="m119.85 66.75h0.101v6.25h-0.5c0.23-2.7 0.37-4.783 0.4-6.25z" fill="#C4B684" fill-rule="evenodd"/>
		<path d="m117.4 115.5l1.3-0.1c0.1 1.366 0.066 3.433-0.101 6.199h-1.35l0.15-6.1z" fill="#C4B684" fill-rule="evenodd"/>
		<path d="m114.1 166.35l0.101-1.55c8e-3 -0.108 0.016-0.217 0.024-0.325 0.065-0.851 0.157-1.676 0.275-2.475l1.3-0.05-0.45 4.45-1.25-0.05z" fill="#C4B684" fill-rule="evenodd"/>
		<polygon points="110.2 166.3 110.25 162.1 112.05 162.1 111.85 166.35" fill="#C4B684" fill-rule="evenodd"/>
		<path d="m115.1 67.05l1.2-0.05 0.3 6-1.35 0.05c0-2.767-0.05-4.767-0.15-6z" fill="#C4B684" fill-rule="evenodd"/>
		<polygon points="112.45 29.85 112.4 24.25 113.6 24.25 113.7 29.85" fill="#C4B684" fill-rule="evenodd"/>
		<path d="m113.25 115.7c0.366 0 0.65-0.017 0.85-0.05l-0.75 5.949h-0.45c0-1.6 0.12-3.57 0.35-5.9z" fill="#C4B684" fill-rule="evenodd"/>
		<path d="m112.1 115.75h0.851c-0.167 1.1-0.184 3.05-0.05 5.85h-1.15l0.35-5.85z" fill="#C4B684" fill-rule="evenodd"/>
		<path d="m120.5 29.9c-0.134-0.533-0.384-1.367-0.75-2.5-0.533-1.467-0.9-2.566-1.1-3.3l1.55-0.05c0.899 3.8 1.35 5.75 1.35 5.85h-1.05z" fill="#C4B684" fill-rule="evenodd"/>
		<path d="m123.05 66.55c0.233-0.033 0.55-0.05 0.95-0.05l-0.45 6.45h-0.85c0.2-3.033 0.32-5.167 0.35-6.4z" fill="#C4B684" fill-rule="evenodd"/>
		<polygon points="119.85 161.85 120.85 161.8 120.7 166.45 119.6 166.45" fill="#C4B684" fill-rule="evenodd"/>
		<path d="m121.25 115.3l0.95-0.1c-0.066 3.566-0.101 5.684-0.101 6.35l-0.949 0.05 0.1-6.3z" fill="#C4B684" fill-rule="evenodd"/>
		<path d="m28.2 26.05c-0.367 1.6-0.833 2.55-1.4 2.85-0.2-1.333-0.3-2.717-0.3-4.15l-0.05-1.85 2.6 0.05-0.8 3.05-0.05 0.05z" fill="#A69B70" fill-rule="evenodd"/>
		<path d="m57.95 29.4l-0.2-6.1 0.65 0.05c-0.033 1.6-0.167 3.467-0.4 5.6l-0.05 0.45z" fill="#A69B70" fill-rule="evenodd"/>
		<path d="m62.65 27.75c-0.3-0.533-0.517-0.967-0.65-1.3-0.067-0.267-0.233-1.3-0.5-3.1l1.4 0.05c-0.133 2-0.183 3.517-0.15 4.55l-0.1-0.2z" fill="#A69B70" fill-rule="evenodd"/>
		<path d="m90.15 29.7l0.05-5.7h1.55c0 2.233-0.15 4.15-0.45 5.75l-1.15-0.05z" fill="#A69B70" fill-rule="evenodd"/>
		<path d="m109.4 29.8c-0.301-1.833-0.534-3.216-0.7-4.15l-0.4-1.35h1.2l-0.05 5.5h-0.05z" fill="#A69B70" fill-rule="evenodd"/>
		<path d="m133.3 30.05l-0.9-3.75c-0.267-0.966-0.4-1.833-0.4-2.6l2.05-0.1-0.399 3.65c-0.134 1.2-0.2 2.133-0.2 2.8h-0.15z" fill="#A69B70" fill-rule="evenodd"/>
		<path d="m41.5 69.75c-0.167-0.6-0.25-1.15-0.25-1.65l2.25-0.05c-0.033 0.267-0.067 1-0.1 2.2-0.033 1.033-0.083 1.85-0.15 2.45-0.033 0.466-0.15 0.95-0.35 1.45h-0.15c-0.1-0.566-0.3-1.3-0.6-2.2-0.333-1.1-0.55-1.833-0.65-2.2z" fill="#A69B70" fill-rule="evenodd"/>
		<path d="m74.1 69.25l-0.3-1.45h0.75l-0.1 1.8c0 1.967-0.083 3.25-0.25 3.85 0.067-1.933 0.033-3.333-0.1-4.2z" fill="#A69B70" fill-rule="evenodd"/>
		<polygon points="88 73.1 88 73.5 87.95 73.5" fill="#A69B70" fill-rule="evenodd"/>
		<path d="m87.05 67.9v-0.1l1.101 0.05c-0.101 1.767-0.151 3.517-0.151 5.25l-0.1-0.65c-0.4-1.8-0.683-3.317-0.85-4.55z" fill="#A69B70" fill-rule="evenodd"/>
		<path d="m91.75 67.85l-0.15 2.05c-0.1 1.167-0.149 2.35-0.149 3.55h-0.451c-0.4-2.467-0.667-4.333-0.8-5.6h1.55z" fill="#A69B70" fill-rule="evenodd"/>
		<path d="m95.7 67.85h1.649l-0.449 5.45c-0.233 0.034-0.567 0.05-1 0.05-0.133-1.633-0.2-3.467-0.2-5.5z" fill="#A69B70" fill-rule="evenodd"/>
			<line x1="119.95" x2="119.95" y1="73" y2="66.75" fill="none" stroke="#A69B70" stroke-linecap="round" stroke-linejoin="round" stroke-miterlimit="3" stroke-width=".1"/>
		<path d="m34.7 115.85l1.5 0.051c-0.067 2.1-0.167 3.466-0.3 4.1-0.1 0.7-0.283 1.35-0.55 1.95h-0.65c-0.067-0.8-0.083-1.816-0.05-3.05 0.033-1.37 0.05-2.38 0.05-3.05z" fill="#A69B70" fill-rule="evenodd"/>
		<path d="m93.25 116.2l-0.1 0.399c-0.601 3.067-0.934 4.784-1 5.15h-0.4c-0.3-3.634-0.45-5.5-0.45-5.6l1.95 0.05z" fill="#A69B70" fill-rule="evenodd"/>
		<path d="m112.95 115.75l0.3-0.05c-0.233 2.333-0.35 4.3-0.35 5.899-0.13-2.8-0.12-4.75 0.05-5.85z" fill="#A69B70" fill-rule="evenodd"/>
		<path d="m122.2 115.2c0.5 0 1.149-0.033 1.95-0.101-0.367 1.134-0.834 3.167-1.4 6.101l-0.05 0.35h-0.6c0-0.67 0.03-2.78 0.1-6.35z" fill="#A69B70" fill-rule="evenodd"/>
		<path d="m42.9 160.55c-0.167 1.233-0.483 2.917-0.95 5.05l-0.2 0.95h-1.75l-0.15-2.5c-0.1-1.333-0.017-2.467 0.25-3.399v-0.101h2.8z" fill="#A69B70" fill-rule="evenodd"/>
		<path d="m47.95 166c-0.133-0.6-0.2-1.467-0.2-2.6 0-1.334-0.033-2.217-0.1-2.65 0.333 0 0.6 0.017 0.8 0.05-0.067 2.1-0.233 3.83-0.5 5.2z" fill="#A69B70" fill-rule="evenodd"/>
		<path d="m50.8 160.95l-1.25 5.55h-0.65c-0.066-0.7-0.083-1.616-0.05-2.75 0.066-1.634 0.1-2.55 0.1-2.75l0.2-0.2 1.65 0.15z" fill="#A69B70" fill-rule="evenodd"/>
		<path d="m57 161.35l-0.6 3.25c-0.1 1.101-0.167 1.717-0.2 1.851h-0.25c-0.4-2.167-0.567-3.816-0.5-4.95l0.15-0.25 1.4 0.1z" fill="#A69B70" fill-rule="evenodd"/>
		<path d="m89.8 162.05l1.5 0.05c-0.6 1.134-1.017 1.983-1.25 2.551l-0.3 0.6c-0.1-0.7-0.083-1.77 0.05-3.2z" fill="#A69B70" fill-rule="evenodd"/>
		<path d="m76.3 164.45c-0.133 0.7-0.316 1.283-0.55 1.75l-0.1-0.8c-0.267-1.534-0.417-2.7-0.45-3.5h1.3c0 0.93-0.066 1.78-0.2 2.55z" fill="#A69B70" fill-rule="evenodd"/>
		<path d="m114.2 164.8l0.1-2.1-0.149-0.7h0.35c-0.13 0.9-0.23 1.83-0.3 2.8z" fill="#A69B70" fill-rule="evenodd"/>
		<path d="m27.6 161.95c0.467 0.666 0.75 1.116 0.85 1.35 0.233 0.566 0.433 1.184 0.6 1.851l0.45 1.399h-2.05c-0.034-0.434-0.167-1.033-0.4-1.8-0.433-1.3-0.7-2.7-0.8-4.2h0.6c0.1 0.37 0.35 0.83 0.75 1.4z" fill="#B8AA7C" fill-rule="evenodd"/>
		<path d="m26.05 115.65l1.9 0.05c-0.1 1.399-0.034 2.666 0.2 3.8l0.6 2.4 0.05 0.05-1.5-0.05c-0.4-2.87-0.817-4.95-1.25-6.25z" fill="#B8AA7C" fill-rule="evenodd"/>
		<path d="m26.5 68h0.75l0.1 0.15c0.533 0.833 1.383 2.133 2.55 3.9 0.434 0.667 0.8 1.383 1.1 2.15l-3.25 0.05c-0.067-0.7-0.217-1.633-0.45-2.8-0.433-1.533-0.7-2.683-0.8-3.45z" fill="#B8AA7C" fill-rule="evenodd"/>
		<rect x="125.68" y="66.35" width=".25" height="6.55" fill="#B8AA7C" fill-rule="evenodd"/>
		<path d="m125.45 118.35c0.166-1.399 0.267-2.449 0.3-3.149l0.05-0.2h0.2v6.55h-0.7c0-0.83 0.05-1.9 0.15-3.2z" fill="#B8AA7C" fill-rule="evenodd"/>
		<polygon points="125.05 166.55 124.95 161.65 125.95 161.65 125.95 166.55" fill="#B8AA7C" fill-rule="evenodd"/>
		<polygon points="125.95 166.55 125.95 161.65 127.45 161.55 127.45 166.55" fill="#908560" fill-rule="evenodd"/>
		<polygon points="126 115 127.45 114.9 127.15 121.55 126 121.55" fill="#908560" fill-rule="evenodd"/>
		<polygon points="125.95 66.35 127.45 66.25 127.15 72.9 125.9 72.9" fill="#908560" fill-rule="evenodd"/>
		<path d="m25.3 67.9l1.2 0.1c0.1 0.767 0.367 1.917 0.8 3.45 0.233 1.167 0.383 2.1 0.45 2.8h-2.45v-0.1l-0.3 0.15-0.05-1.4 0.35-0.05v-4.95z" fill="#908560" fill-rule="evenodd"/>
		<path d="m24.45 119.4v-0.051l0.65 0.051 0.2 0.05v-3.9l0.75 0.101c0.434 1.3 0.85 3.383 1.25 6.25h-2v-1.7l-0.5 0.3-0.35-1.1z" fill="#908560" fill-rule="evenodd"/>
		<path d="m25.3 160.75v-0.2h0.95c0.1 1.5 0.367 2.9 0.8 4.2 0.233 0.767 0.367 1.366 0.4 1.8h-2.15v-3.8l-0.25-0.15-0.3-0.3c0-0.533 0.083-1.1 0.25-1.7l0.3 0.15z" fill="#908560" fill-rule="evenodd"/>
	<g fill-rule="evenodd">
		<path d="m17.3 27.85l1.8-0.5c0.8 1.033 1.867 1.633 3.2 1.8l-0.2 0.7c-0.1 0.467-0.3 0.8-0.6 1-0.4-0.067-0.867-0.217-1.4-0.45-0.333-0.133-0.9-0.6-1.7-1.4l-1.1-1.15z" fill="#97979C"/>
		<polygon points="19.1 27.35 19.6 27.9 17.9 27.65" fill="#76767A"/>
		<path d="m21.1 29.9c0.4 0.067 0.683-0.05 0.85-0.35 0.033-0.033 0.05-0.2 0.05-0.5l0.3 0.1-0.2 0.7c-0.1 0.367-0.233 0.633-0.4 0.8-0.934-0.3-1.5-0.6-1.7-0.9l-0.15-0.3c-0.1-0.2-0.133-0.4-0.1-0.6l0.15-0.75 0.15 0.1-0.15 0.45c0 0.4 0.083 0.667 0.25 0.8 0.3 0.233 0.617 0.383 0.95 0.45z" fill="#76767A"/>
		<path d="m21.7 30.65l-0.2 0.2c-0.4-0.067-0.867-0.217-1.4-0.45-0.333-0.133-0.9-0.6-1.7-1.4l-1.1-1.15 0.6-0.2 1.7 0.25 0.3 0.2-0.15 0.75c-0.033 0.2 0 0.4 0.1 0.6l0.15 0.3c0.2 0.3 0.767 0.6 1.7 0.9z" fill="#5B5B5E"/>
		<path d="m19.9 28.65c0.133-0.033 0.633 0.2 1.5 0.7h0.5c-0.5 0.1-0.883 0.1-1.15 0-0.4-0.2-0.683-0.433-0.85-0.7z" fill="#D9D9E0"/>
		<path d="m18.55 24.75c1.4 0.5 2.25 1.3 2.55 2.4 0.1 0.4 0.1 1.15 0 2.25-0.067 0.567-0.517 1.1-1.35 1.6-0.9 0.533-1.8 0.683-2.7 0.45-1.9-0.534-2.85-1.717-2.85-3.55-0.034-1 0.35-1.867 1.15-2.6 0.9-0.833 1.967-1.017 3.2-0.55z" fill="#D9D9E0"/>
		<path d="m18.7 25.1c1.433 0.5 2.267 1.333 2.5 2.5 0.1 0.367 0.083 1.15-0.05 2.35-0.066 0.533-0.433 1.05-1.1 1.55-0.767 0.5-1.517 0.65-2.25 0.45-1.8-0.434-2.7-1.367-2.7-2.8 0-1 0.316-1.967 0.95-2.9 0.767-1.133 1.65-1.517 2.65-1.15z" fill="#7E7E82"/>
		<path d="m18.2 25.15c1.133 0.434 1.816 1.15 2.05 2.15 0.067 0.267 0.067 0.95 0 2.05-0.067 0.533-0.433 1.05-1.1 1.55-0.767 0.533-1.533 0.7-2.3 0.5-1.533-0.433-2.3-1.5-2.3-3.2 0-0.934 0.333-1.75 1-2.45 0.733-0.8 1.617-1 2.65-0.6z" fill="#ABABB0"/>
		<path d="m14.55 28.2c0-0.3 0.05-0.6 0.15-0.9 0.033 0 0.216 0.05 0.55 0.15-0.067 0.4 0.15 0.683 0.65 0.85 0.333 0.1 0.767 0.184 1.3 0.25 0.367 0.067 0.65 0.083 0.85 0.05 0.133-0.033 0.333-0.117 0.6-0.25 0.167 0.2 0.117 0.467-0.15 0.8 0.267 0.033 0.5-0.15 0.7-0.55 0.2-0.467 0.367-0.717 0.5-0.75 0.1 1.066-0.233 1.85-1 2.35-0.9 0.533-1.7 0.75-2.4 0.65l-0.8-0.15c-0.633-0.6-0.95-1.433-0.95-2.5z" fill="#9C9CA1"/>
		<path d="m15.85 26.55c0-0.466 0.15-0.783 0.45-0.95 0.4-0.3 0.733-0.4 1-0.3l0.3-0.05c0.433 0.067 0.767 0.417 1 1.05 0.2 0.6 0.05 0.917-0.45 0.95-0.167 0-0.35-0.067-0.55-0.2-0.3-0.167-0.483-0.267-0.55-0.3-0.533-0.033-0.933-0.1-1.2-0.2z" fill="#BFBFC4"/>
		<path d="m22.6 29.85c0.066 0.367 0.083 0.7 0.05 1-0.033 0.167-0.167 0.383-0.4 0.65-0.1 0.133-0.1 0.333 0 0.6-0.267-0.1-0.45-0.167-0.55-0.2-0.133 0-0.25 0.133-0.35 0.4-0.1 0.4-0.25 0.667-0.45 0.8 0.133-0.233 0.033-0.45-0.3-0.65-0.4-0.133-0.667-0.25-0.8-0.35 0.5-0.167 0.75-0.35 0.75-0.55-0.2-0.2-0.316-0.35-0.35-0.45-0.034-0.033-0.05-0.184-0.05-0.45l0.4-0.05c0.267 0.167 0.567 0.233 0.9 0.2 0.333-0.066 0.566-0.233 0.7-0.5 0.1-0.167 0.117-0.367 0.05-0.6-0.034-0.267-0.034-0.467 0-0.6 0.2 0.033 0.333 0.283 0.4 0.75z" fill="#6C6342"/>
	</g>
	<g fill-rule="evenodd">
		<path d="m134.15 161.15c-1.334 1.466-2.267 2.316-2.801 2.55l-1.399 0.45c-0.3-0.2-0.5-0.534-0.601-1l-0.149-0.7c1.3-0.167 2.35-0.767 3.149-1.8l1.8 0.5z" fill="#97979C"/>
		<polygon points="132.35 160.65 133.55 160.95 131.85 161.2" fill="#76767A"/>
		<path d="m131.55 161.4l0.2 0.75c0 0.199-0.05 0.399-0.15 0.6l-0.149 0.3c-0.2 0.3-0.767 0.601-1.7 0.9-0.167-0.167-0.3-0.434-0.4-0.8l-0.149-0.7 0.25-0.101c0 0.301 0.017 0.467 0.05 0.5 0.167 0.301 0.45 0.417 0.85 0.351 0.334-0.066 0.65-0.217 0.95-0.45 0.167-0.134 0.25-0.4 0.25-0.8l-0.1-0.45 0.1-0.1z" fill="#76767A"/>
		<path d="m131.45 163.05l0.149-0.3c0.101-0.2 0.15-0.4 0.15-0.6l-0.2-0.75 0.3-0.2 1.7-0.25 0.601 0.2c-1.334 1.466-2.267 2.316-2.801 2.55l-1.399 0.45-0.2-0.2c0.93-0.3 1.5-0.6 1.7-0.9z" fill="#5B5B5E"/>
		<path d="m131.55 161.95c-0.166 0.267-0.45 0.5-0.85 0.7-0.267 0.1-0.65 0.1-1.15 0h0.5c0.87-0.5 1.37-0.73 1.5-0.7z" fill="#D9D9E0"/>
		<path d="m132.6 156.9c1-0.567 2.017-0.567 3.051 0 0.899 0.533 1.483 1.233 1.75 2.1 0.533 1.6 0.017 2.75-1.551 3.45-0.733 0.333-1.583 0.333-2.55 0-0.866-0.334-1.416-0.733-1.649-1.2-0.434-0.9-0.65-1.55-0.65-1.95-0.07-0.97 0.47-1.77 1.6-2.4z" fill="#D9D9E0"/>
		<path d="m132.55 157.2c0.8-0.434 1.7-0.233 2.7 0.6 0.866 0.733 1.434 1.533 1.7 2.4 0.399 1.2-0.134 2.133-1.601 2.8-0.633 0.267-1.35 0.233-2.149-0.1-0.767-0.301-1.25-0.684-1.45-1.15-0.467-1.033-0.7-1.7-0.7-2-0.13-1.03 0.37-1.88 1.5-2.55z" fill="#7E7E82"/>
		<path d="m133.05 157.2c0.8-0.467 1.65-0.417 2.55 0.149 0.767 0.5 1.301 1.15 1.601 1.95 0.467 1.5 0.066 2.533-1.2 3.101-0.6 0.267-1.316 0.216-2.15-0.15-0.767-0.333-1.25-0.717-1.449-1.15-0.367-0.8-0.567-1.383-0.601-1.75-0.1-0.9 0.32-1.62 1.25-2.15z" fill="#ABABB0"/>
		<path d="m137.05 161.55c-0.033 0.033-0.267 0.117-0.7 0.25-0.666 0.2-1.433 0.134-2.3-0.2-0.833-0.267-1.366-0.883-1.6-1.85 0.133 0 0.366 0.184 0.7 0.55 0.267 0.334 0.517 0.467 0.75 0.4 0-0.066-0.084-0.167-0.25-0.3-0.134-0.134-0.167-0.25-0.101-0.351 0.134-0.033 0.334 0 0.601 0.101l0.75-0.15c0.533-0.167 0.899-0.3 1.1-0.4 0.4-0.233 0.517-0.517 0.35-0.85l0.45-0.2 0.4 0.75c0.3 0.9 0.25 1.65-0.15 2.25z" fill="#9C9CA1"/>
		<path d="m135.5 158.05c-0.434 0.134-0.767 0.25-1 0.351-0.3 0.366-0.583 0.566-0.85 0.6-0.467 0.033-0.684-0.217-0.65-0.75 0-0.566 0.2-0.917 0.6-1.05h0.301c0.199-0.134 0.517-0.101 0.949 0.1 0.33 0.13 0.55 0.38 0.65 0.75z" fill="#BFBFC4"/>
		<path d="m129.25 162.4c0.033 0.133 0.033 0.333 0 0.6-0.066 0.233-0.05 0.434 0.05 0.6 0.167 0.267 0.417 0.434 0.75 0.5 0.3 0.034 0.584-0.033 0.851-0.199l0.399 0.05c0.066 0.133 0.066 0.283 0 0.45-0.066 0.1-0.2 0.25-0.399 0.449 0 0.2 0.25 0.384 0.75 0.551-0.101 0.1-0.367 0.216-0.801 0.35-0.333 0.2-0.433 0.417-0.3 0.65-0.2-0.134-0.35-0.4-0.45-0.801-0.1-0.267-0.216-0.399-0.35-0.399-0.2 0.1-0.384 0.166-0.55 0.2 0.1-0.267 0.1-0.467 0-0.601-0.233-0.267-0.367-0.483-0.4-0.649-0.033-0.301-0.017-0.634 0.05-1 0.07-0.47 0.2-0.72 0.4-0.75z" fill="#6C6342"/>
	</g>
</g>
</svg>
