<?xml version="1.0" encoding="utf-8"?>
<!-- Generator: Adobe Illustrator 15.0.0, SVG Export Plug-In . SVG Version: 6.00 Build 0)  -->
<!DOCTYPE svg PUBLIC "-//W3C//DTD SVG 1.1//EN" "http://www.w3.org/Graphics/SVG/1.1/DTD/svg11.dtd">
<svg version="1.1" id="Layer_1" xmlns="http://www.w3.org/2000/svg" xmlns:xlink="http://www.w3.org/1999/xlink" x="0px" y="0px"
	 width="595.279px" height="841.891px" viewBox="0 0 595.279 841.891" enable-background="new 0 0 595.279 841.891"
	 xml:space="preserve">
<g transform="translate(-301.05 -403.77)">
	<path fill="#FFFFFF" stroke="#000000" stroke-width="2" stroke-linecap="round" stroke-linejoin="round" d="M433.075,1071.628
		l348.078-32.487L769,582.02l-330.397,49.849l-5.532,439.766L433.075,1071.628z"/>
	<path fill="#FFFFFF" stroke="#000000" stroke-linecap="round" stroke-linejoin="round" d="M745.918,1013.185l25.191,19.478
		l-9.394-441.741l-27.993-25.16l12.193,447.42L745.918,1013.185z"/>
	<path fill="#FFFFFF" stroke="#000000" stroke-linecap="round" stroke-linejoin="round" d="M416.935,1044.901l15.849,15.797
		l338.746-27.636l-24.918-22.425L416.935,1044.901L416.935,1044.901z"/>
	<path fill="#FFFFFF" stroke="#000000" stroke-width="2" stroke-linecap="round" stroke-linejoin="round" d="M408.366,1044.239
		c114.034-11.576,226.798-8.84,342.134-35.058l-11.913-448.598c-106.934,20.72-214.34,32.515-321.511,48.766L408.366,1044.239
		L408.366,1044.239z"/>
	<path fill="#FFFFFF" stroke="#000000" stroke-linecap="round" stroke-linejoin="round" d="M435.37,1029.811l9.597-1.147
		l0.645-44.998l-7.863,1.124L435.37,1029.811L435.37,1029.811z"/>
	<path fill="#FFFFFF" stroke="#000000" stroke-linecap="round" stroke-linejoin="round" d="M439.942,1022.85l0.854-30.86
		c-12.913-8.389-27.575-13.328-37.373,1.992l0.243,35.799C414.358,1010.749,423.688,1011.954,439.942,1022.85L439.942,1022.85z"/>
	<path fill="#FFFFFF" stroke="#000000" stroke-linecap="round" stroke-linejoin="round" d="M435.37,976.012l9.597-1.147
		l0.644-44.997l-7.862,1.123L435.37,976.012L435.37,976.012z"/>
	<path fill="#FFFFFF" stroke="#000000" stroke-linecap="round" stroke-linejoin="round" d="M440.007,970.704l0.854-30.86
		c-12.913-8.39-27.62-14.158-37.417,1.162l0.287,36.63C414.422,958.602,423.753,959.807,440.007,970.704z"/>
	<path fill="#FFFFFF" stroke="#000000" stroke-linecap="round" stroke-linejoin="round" d="M436.989,923.712l9.596-1.146
		l0.645-44.998l-7.863,1.124L436.989,923.712L436.989,923.712z"/>
	<path fill="#FFFFFF" stroke="#000000" stroke-linecap="round" stroke-linejoin="round" d="M441.537,916.731l0.854-30.861
		c-12.912-8.389-28.316-11.622-38.114,3.697l-0.238,34.576C414.729,905.11,425.283,905.834,441.537,916.731L441.537,916.731z"/>
	<path fill="#FFFFFF" stroke="#000000" stroke-linecap="round" stroke-linejoin="round" d="M439.434,868.967l9.597-1.147
		l0.644-44.997l-7.863,1.124L439.434,868.967L439.434,868.967z"/>
	<path fill="#FFFFFF" stroke="#000000" stroke-linecap="round" stroke-linejoin="round" d="M443.19,862.867l0.854-30.86
		c-12.913-8.389-28.318-11.623-38.114,3.697l0.503,32.87C417.123,849.542,426.935,851.97,443.19,862.867L443.19,862.867z"/>
	<path fill="#FFFFFF" stroke="#000000" stroke-linecap="round" stroke-linejoin="round" d="M441.274,816.866l9.597-1.146
		l0.644-44.998l-7.863,1.124L441.274,816.866L441.274,816.866z"/>
	<path fill="#FFFFFF" stroke="#000000" stroke-linecap="round" stroke-linejoin="round" d="M445.847,809.907l0.853-30.861
		c-12.912-8.389-28.316-11.623-38.114,3.697l0.985,34.095C420.262,797.805,429.593,799.01,445.847,809.907L445.847,809.907z"/>
	<path fill="#FFFFFF" stroke="#000000" stroke-linecap="round" stroke-linejoin="round" d="M441.364,764.742l9.596-1.147
		l0.645-44.997l-7.863,1.124L441.364,764.742L441.364,764.742z"/>
	<path fill="#FFFFFF" stroke="#000000" stroke-linecap="round" stroke-linejoin="round" d="M446.001,759.435l0.854-30.861
		c-12.913-8.389-28.317-11.622-38.114,3.698l0.984,34.094C420.416,747.333,429.747,748.538,446.001,759.435L446.001,759.435z"/>
	<path fill="#FFFFFF" stroke="#000000" stroke-linecap="round" stroke-linejoin="round" d="M442.346,711.87l9.597-1.147
		l0.644-44.997l-7.863,1.124L442.346,711.87L442.346,711.87z"/>
	<path fill="#FFFFFF" stroke="#000000" stroke-linecap="round" stroke-linejoin="round" d="M446.919,704.91l0.853-30.86
		c-12.912-8.389-27.442-10.836-37.239,4.484l0.11,33.308C421.334,692.808,430.664,694.013,446.919,704.91L446.919,704.91z"/>
	<path fill="#FFFFFF" stroke="#000000" stroke-linecap="round" stroke-linejoin="round" d="M442.413,659.771l9.597-1.147
		l0.644-44.998l-7.863,1.124L442.413,659.771L442.413,659.771z"/>
	<path fill="#FFFFFF" stroke="#000000" stroke-linecap="round" stroke-linejoin="round" d="M447.072,654.438l0.854-30.861
		c-12.912-8.389-27.618-14.158-37.416,1.162l0.287,36.63C421.488,642.336,430.819,643.541,447.072,654.438L447.072,654.438z"/>
	<path fill="#FFFFFF" stroke="#000000" stroke-linecap="round" stroke-linejoin="round" d="M493.636,655.197l-0.013,109.104
		l192.841-22.772l-3.484-112.248L493.638,655.2L493.636,655.197z"/>
</g>
</svg>
